<svg width="72" height="72" viewBox="0 0 72 72" fill="none" xmlns="http://www.w3.org/2000/svg">
<path fill-rule="evenodd" clip-rule="evenodd" d="M36 0C35.4108 0 34.822 0.0144545 34.2336 0.0433634C33.6451 0.0722726 33.0577 0.115601 32.4714 0.17335C31.8851 0.231098 31.3005 0.303197 30.7177 0.389646C30.1349 0.476094 29.5546 0.576788 28.9768 0.691729C28.3989 0.80667 27.8242 0.935718 27.2527 1.07887C26.6812 1.22203 26.1136 1.37912 25.5498 1.55015C24.986 1.72117 24.4267 1.90593 23.872 2.10441C23.3172 2.3029 22.7677 2.51487 22.2234 2.74034C21.6791 2.9658 21.1406 3.20448 20.608 3.45639C20.0754 3.7083 19.5493 3.97312 19.0297 4.25084C18.5101 4.52857 17.9976 4.81888 17.4923 5.12176C16.9869 5.42466 16.4893 5.73977 15.9995 6.06708C15.5096 6.39442 15.028 6.73356 14.5548 7.08451C14.0816 7.43549 13.6173 7.79786 13.1619 8.17164C12.7064 8.54539 12.2604 8.9301 11.8239 9.32576C11.3873 9.72143 10.9608 10.1276 10.5441 10.5441C10.1276 10.9608 9.72143 11.3873 9.32576 11.8239C8.9301 12.2604 8.54539 12.7064 8.17164 13.1619C7.79786 13.6173 7.4355 14.0816 7.08455 14.5548C6.73357 15.028 6.39442 15.5096 6.06708 15.9995C5.73977 16.4893 5.42466 16.9869 5.12176 17.4923C4.81888 17.9976 4.52857 18.5101 4.25084 19.0297C3.97312 19.5493 3.7083 20.0754 3.45639 20.608C3.20448 21.1406 2.9658 21.6791 2.74034 22.2234C2.51487 22.7677 2.3029 23.3172 2.10441 23.872C1.90593 24.4267 1.72118 24.986 1.55015 25.5497C1.37912 26.1135 1.22203 26.6812 1.07888 27.2527C0.935719 27.8242 0.80667 28.3989 0.691729 28.9768C0.576788 29.5546 0.476094 30.1349 0.389646 30.7177C0.303197 31.3005 0.231098 31.885 0.17335 32.4714C0.115601 33.0577 0.0722726 33.6451 0.0433634 34.2336C0.0144545 34.822 0 35.4108 0 36C0 36.5892 0.0144545 37.178 0.0433634 37.7665C0.0722726 38.355 0.115601 38.9424 0.17335 39.5287C0.231098 40.115 0.303197 40.6996 0.389646 41.2823C0.476094 41.865 0.576788 42.4453 0.691729 43.0232C0.80667 43.6012 0.935718 44.1758 1.07887 44.7473C1.22203 45.3187 1.37912 45.8863 1.55015 46.4501C1.72117 47.0141 1.90593 47.5734 2.10441 48.128C2.3029 48.6827 2.51487 49.2322 2.74034 49.7765C2.9658 50.3208 3.20448 50.8592 3.45639 51.3918C3.7083 51.9246 3.97312 52.4508 4.25084 52.9704C4.52857 53.49 4.81888 54.0024 5.12176 54.5076C5.42466 55.013 5.73977 55.5107 6.06708 56.0005C6.39442 56.4904 6.73356 56.9719 7.08451 57.4452C7.43549 57.9185 7.79786 58.3828 8.17164 58.838C8.54539 59.2936 8.9301 59.7396 9.32576 60.1762C9.72143 60.6127 10.1276 61.0393 10.5441 61.456C10.9608 61.8724 11.3873 62.2784 11.8239 62.6742C12.2604 63.07 12.7064 63.4547 13.1619 63.8284C13.6173 64.202 14.0816 64.5644 14.5548 64.9156C15.028 65.2664 15.5096 65.6056 15.9995 65.9329C16.4893 66.2603 16.9869 66.5754 17.4923 66.8783C17.9976 67.1812 18.5101 67.4714 19.0297 67.7491C19.5493 68.0268 20.0754 68.2916 20.608 68.5436C21.1406 68.7954 21.6791 69.0341 22.2234 69.2597C22.7677 69.485 23.3172 69.697 23.872 69.8954C24.4267 70.0939 24.986 70.2787 25.5497 70.4498C26.1135 70.621 26.6812 70.778 27.2527 70.9211C27.8242 71.0644 28.3989 71.1934 28.9768 71.3081C29.5546 71.423 30.1349 71.5238 30.7177 71.6105C31.3005 71.6969 31.885 71.7689 32.4714 71.8265C33.0577 71.8843 33.6451 71.9278 34.2336 71.9568C34.822 71.9856 35.4108 72 36 72C36.5892 72 37.178 71.9856 37.7665 71.9568C38.355 71.9278 38.9424 71.8843 39.5287 71.8265C40.115 71.7689 40.6996 71.6969 41.2823 71.6105C41.865 71.5238 42.4453 71.423 43.0232 71.3081C43.6012 71.1934 44.1758 71.0644 44.7473 70.9211C45.3187 70.778 45.8863 70.621 46.4501 70.4498C47.0141 70.2787 47.5734 70.0939 48.128 69.8954C48.6827 69.697 49.2322 69.485 49.7765 69.2597C50.3208 69.0341 50.8594 68.7954 51.3922 68.5436C51.9247 68.2916 52.4508 68.0268 52.9704 67.7491C53.49 67.4714 54.0024 67.1812 54.5076 66.8783C55.013 66.5754 55.5107 66.2603 56.0005 65.9329C56.4904 65.6056 56.9719 65.2664 57.4452 64.9156C57.9185 64.5644 58.3828 64.202 58.838 63.8284C59.2936 63.4547 59.7396 63.07 60.1762 62.6742C60.6127 62.2784 61.0393 61.8724 61.456 61.456C61.8726 61.0393 62.2787 60.6127 62.6742 60.1762C63.07 59.7396 63.4547 59.2936 63.8284 58.838C64.202 58.3828 64.5644 57.9185 64.9156 57.4452C65.2664 56.9719 65.6056 56.4904 65.9329 56.0005C66.2603 55.5107 66.5754 55.013 66.8783 54.5076C67.1812 54.0024 67.4714 53.49 67.7491 52.9704C68.0268 52.4508 68.2916 51.9246 68.5436 51.3918C68.7956 50.8592 69.0343 50.3208 69.2597 49.7765C69.485 49.2322 69.697 48.6827 69.8954 48.128C70.0939 47.5734 70.2787 47.0141 70.4498 46.4501C70.621 45.8863 70.778 45.3187 70.9211 44.7473C71.0644 44.1758 71.1935 43.6012 71.3084 43.0232C71.4232 42.4453 71.5238 41.865 71.6105 41.2823C71.6969 40.6996 71.769 40.115 71.8268 39.5287C71.8844 38.9424 71.9278 38.355 71.9568 37.7665C71.9856 37.178 72 36.5892 72 36C72 35.4108 71.9856 34.822 71.9568 34.2336C71.9278 33.6451 71.8844 33.0577 71.8268 32.4714C71.769 31.885 71.6969 31.3005 71.6105 30.7177C71.5238 30.1349 71.4232 29.5546 71.3084 28.9768C71.1935 28.3989 71.0644 27.8242 70.9211 27.2527C70.778 26.6812 70.621 26.1135 70.4498 25.5497C70.2787 24.986 70.0939 24.4267 69.8954 23.872C69.697 23.3172 69.485 22.7677 69.2597 22.2234C69.0343 21.6791 68.7956 21.1406 68.5436 20.608C68.2916 20.0754 68.0268 19.5493 67.7491 19.0297C67.4714 18.5101 67.1812 17.9976 66.8783 17.4923C66.5754 16.9869 66.2603 16.4893 65.9329 15.9995C65.6056 15.5096 65.2664 15.028 64.9156 14.5548C64.5644 14.0816 64.202 13.6173 63.8284 13.1619C63.4547 12.7064 63.07 12.2604 62.6742 11.8239C62.2787 11.3873 61.8726 10.9608 61.456 10.5441C61.0393 10.1276 60.6127 9.72143 60.1762 9.32576C59.7396 8.9301 59.2936 8.54539 58.838 8.17164C58.3828 7.79786 57.9185 7.43549 57.4452 7.08451C56.9719 6.73356 56.4904 6.39442 56.0005 6.06708C55.5107 5.73977 55.013 5.42466 54.5076 5.12176C54.0024 4.81888 53.49 4.52857 52.9704 4.25084C52.4508 3.97312 51.9247 3.7083 51.3922 3.45639C50.8594 3.20448 50.3208 2.9658 49.7765 2.74034C49.2322 2.51487 48.6827 2.3029 48.128 2.10441C47.5734 1.90593 47.0142 1.72117 46.4504 1.55015C45.8864 1.37912 45.3187 1.22203 44.7473 1.07887C44.1758 0.935718 43.6012 0.80667 43.0232 0.691729C42.4453 0.576788 41.865 0.476094 41.2823 0.389646C40.6996 0.303197 40.115 0.231098 39.5287 0.17335C38.9424 0.115601 38.355 0.0722726 37.7665 0.0433634C37.178 0.0144545 36.5892 0 36 0Z" fill="#12C9B1"/>
<path d="M30.9497 36.7982C31.1841 37.0326 31.5021 37.1643 31.8336 37.1643C32.1651 37.1643 32.483 37.0326 32.7175 36.7982L45.4332 24.0824C45.4341 24.0815 45.435 24.0806 45.4359 24.0798C46.2432 23.2839 47.3324 22.8393 48.4662 22.8428C49.6012 22.8463 50.6887 23.2988 51.4913 24.1014C52.2939 24.9039 52.7464 25.9914 52.75 27.1264C52.7536 28.2602 52.309 29.3493 51.5132 30.1567C51.5123 30.1576 51.5114 30.1585 51.5105 30.1594L34.8724 46.7975L34.8722 46.7977C34.4732 47.1969 33.9995 47.5135 33.4782 47.7295C32.9569 47.9456 32.3981 48.0567 31.8338 48.0567C31.2694 48.0567 30.7106 47.9456 30.1893 47.7295C29.6679 47.5135 29.1943 47.1969 28.7953 46.7977L28.7951 46.7975L20.4775 38.4799C19.686 37.672 19.2449 36.5845 19.25 35.4533C19.2552 34.3203 19.7075 33.2352 20.5087 32.4341C21.3098 31.633 22.3949 31.1806 23.5278 31.1755C24.659 31.1704 25.7465 31.6115 26.5545 32.403L30.9497 36.7982Z" fill="white" stroke="#12C9B1" stroke-width="2.5" stroke-linejoin="round"/>
</svg>
