<svg width="12" height="12" viewBox="0 0 12 12" fill="none" xmlns="http://www.w3.org/2000/svg">
<path d="M9.05922 2.30418L9.06006 2.30335C9.32336 2.04378 9.67858 1.89875 10.0483 1.89991C10.4185 1.90107 10.7732 2.04862 11.0349 2.31036C11.2967 2.5721 11.4442 2.92676 11.4454 3.29692C11.4466 3.66669 11.3016 4.02191 11.042 4.28522L11.0412 4.28606L5.63793 9.6893C5.50782 9.81947 5.35335 9.92274 5.18332 9.99319C5.0133 10.0636 4.83106 10.0999 4.64702 10.0999C4.46298 10.0999 4.28074 10.0636 4.11072 9.99319C3.94069 9.92274 3.78614 9.8194 3.65604 9.68923L0.954914 6.98811C0.696772 6.7246 0.552909 6.36993 0.55458 6.00101C0.556253 5.63153 0.703775 5.27765 0.965045 5.01638C1.22631 4.75511 1.58019 4.60759 1.94967 4.60592C2.31859 4.60425 2.67327 4.74811 2.93677 5.00625L4.36412 6.43361C4.43914 6.50862 4.54088 6.55077 4.64697 6.55077C4.75305 6.55077 4.85479 6.50862 4.92981 6.43361L9.05922 2.30418Z" fill="white"/>
</svg>
