<svg width="40" height="40" viewBox="0 0 40 40" fill="none" xmlns="http://www.w3.org/2000/svg">
<mask id="path-1-inside-1_214_12292" fill="white">
<path fill-rule="evenodd" clip-rule="evenodd" d="M20 0C19.6727 0 19.3456 0.00803027 19.0187 0.0240908C18.6917 0.0401515 18.3654 0.064223 18.0397 0.0963054C17.7139 0.128388 17.3892 0.168443 17.0654 0.21647C16.7416 0.264497 16.4192 0.320438 16.0982 0.384294C15.7772 0.44815 15.4579 0.519843 15.1404 0.599374C14.8229 0.678906 14.5075 0.766179 14.1943 0.861194C13.8811 0.956207 13.5704 1.05885 13.2622 1.16912C12.954 1.27939 12.6487 1.39715 12.3463 1.52241C12.0439 1.64767 11.7448 1.78027 11.4489 1.92021C11.153 2.06016 10.8607 2.20729 10.5721 2.36158C10.2834 2.51587 9.99869 2.67715 9.71794 2.84542C9.43719 3.0137 9.16075 3.18876 8.8886 3.3706C8.61644 3.55245 8.34891 3.74087 8.08602 3.93584C7.82311 4.13083 7.56515 4.33215 7.31214 4.5398C7.05911 4.74744 6.81134 4.96117 6.56882 5.18098C6.3263 5.40079 6.08931 5.62642 5.85786 5.85786C5.62642 6.08931 5.40079 6.3263 5.18098 6.56882C4.96117 6.81134 4.74744 7.05911 4.5398 7.31214C4.33215 7.56515 4.13083 7.82311 3.93586 8.08602C3.74087 8.34891 3.55245 8.61644 3.3706 8.8886C3.18876 9.16075 3.0137 9.43719 2.84542 9.71794C2.67715 9.99869 2.51587 10.2834 2.36158 10.5721C2.20729 10.8607 2.06016 11.153 1.92021 11.4489C1.78027 11.7448 1.64767 12.0439 1.52241 12.3463C1.39715 12.6487 1.27939 12.954 1.16912 13.2622C1.05885 13.5704 0.956209 13.8811 0.861194 14.1943C0.766179 14.5075 0.678907 14.8229 0.599376 15.1404C0.519844 15.4579 0.44815 15.7772 0.384294 16.0982C0.320438 16.4192 0.264497 16.7416 0.21647 17.0654C0.168443 17.3892 0.128388 17.7139 0.0963054 18.0397C0.064223 18.3654 0.0401515 18.6917 0.0240908 19.0186C0.00803027 19.3456 0 19.6727 0 20C0 20.3273 0.00803027 20.6545 0.0240908 20.9814C0.0401515 21.3083 0.064223 21.6347 0.0963054 21.9604C0.128388 22.2861 0.168443 22.6109 0.21647 22.9346C0.264497 23.2583 0.320438 23.5807 0.384294 23.9018C0.44815 24.2229 0.519843 24.5421 0.599374 24.8596C0.678906 25.1771 0.766179 25.4924 0.861194 25.8056C0.956207 26.1189 1.05885 26.4297 1.16912 26.7378C1.27939 27.0459 1.39715 27.3512 1.52241 27.6536C1.64767 27.956 1.78027 28.2551 1.92021 28.551C2.06016 28.847 2.20729 29.1393 2.36158 29.428C2.51587 29.7167 2.67715 30.0013 2.84542 30.282C3.0137 30.5628 3.18876 30.8393 3.3706 31.1114C3.55245 31.3835 3.74087 31.6511 3.93584 31.914C4.13083 32.1769 4.33215 32.4349 4.5398 32.6878C4.74744 32.9409 4.96117 33.1887 5.18098 33.4312C5.40079 33.6737 5.62642 33.9107 5.85786 34.1422C6.08931 34.3735 6.3263 34.5991 6.56882 34.819C6.81134 35.0389 7.05911 35.2526 7.31214 35.4602C7.56515 35.6678 7.82311 35.8691 8.08602 36.0642C8.34891 36.2591 8.61644 36.4475 8.8886 36.6294C9.16075 36.8113 9.43719 36.9863 9.71794 37.1546C9.99869 37.3229 10.2834 37.4841 10.5721 37.6384C10.8607 37.7927 11.153 37.9398 11.4489 38.0798C11.7448 38.2197 12.0439 38.3523 12.3463 38.4776C12.6487 38.6028 12.954 38.7205 13.2622 38.8308C13.5704 38.9411 13.8811 39.0437 14.1943 39.1388C14.5075 39.2339 14.8229 39.3211 15.1404 39.4006C15.4579 39.4802 15.7772 39.5519 16.0982 39.6156C16.4192 39.6795 16.7416 39.7355 17.0654 39.7836C17.3892 39.8316 17.7139 39.8716 18.0397 39.9036C18.3654 39.9357 18.6917 39.9599 19.0186 39.976C19.3456 39.992 19.6727 40 20 40C20.3273 40 20.6545 39.992 20.9814 39.976C21.3083 39.9599 21.6347 39.9357 21.9604 39.9036C22.2861 39.8716 22.6109 39.8316 22.9346 39.7836C23.2583 39.7355 23.5807 39.6795 23.9018 39.6156C24.2229 39.5519 24.5421 39.4802 24.8596 39.4006C25.1771 39.3211 25.4924 39.2339 25.8056 39.1388C26.1189 39.0437 26.4297 38.9411 26.7378 38.8308C27.0459 38.7205 27.3512 38.6028 27.6536 38.4776C27.956 38.3523 28.2552 38.2197 28.5512 38.0798C28.8471 37.9398 29.1393 37.7927 29.428 37.6384C29.7167 37.4841 30.0013 37.3229 30.282 37.1546C30.5628 36.9863 30.8393 36.8113 31.1114 36.6294C31.3835 36.4475 31.6511 36.2591 31.914 36.0642C32.1769 35.8691 32.4349 35.6678 32.6878 35.4602C32.9409 35.2526 33.1887 35.0389 33.4312 34.819C33.6737 34.5991 33.9107 34.3735 34.1422 34.1422C34.3737 33.9107 34.5993 33.6737 34.819 33.4312C35.0389 33.1887 35.2526 32.9409 35.4602 32.6878C35.6678 32.4349 35.8691 32.1769 36.0642 31.914C36.2591 31.6511 36.4475 31.3835 36.6294 31.1114C36.8113 30.8393 36.9863 30.5628 37.1546 30.282C37.3229 30.0013 37.4841 29.7167 37.6384 29.428C37.7927 29.1393 37.9398 28.847 38.0798 28.551C38.2198 28.2551 38.3524 27.956 38.4776 27.6536C38.6028 27.3512 38.7205 27.0459 38.8308 26.7378C38.9411 26.4297 39.0437 26.1189 39.1388 25.8056C39.2339 25.4924 39.3211 25.1771 39.4006 24.8596C39.4802 24.5421 39.5519 24.2229 39.6158 23.9018C39.6795 23.5807 39.7355 23.2583 39.7836 22.9346C39.8316 22.6109 39.8717 22.2861 39.9038 21.9604C39.9358 21.6347 39.9599 21.3083 39.976 20.9814C39.992 20.6545 40 20.3273 40 20C40 19.6727 39.992 19.3456 39.976 19.0186C39.9599 18.6917 39.9358 18.3654 39.9038 18.0397C39.8717 17.7139 39.8316 17.3892 39.7836 17.0654C39.7355 16.7416 39.6795 16.4192 39.6158 16.0982C39.5519 15.7772 39.4802 15.4579 39.4006 15.1404C39.3211 14.8229 39.2339 14.5075 39.1388 14.1943C39.0437 13.8811 38.9411 13.5704 38.8308 13.2622C38.7205 12.954 38.6028 12.6487 38.4776 12.3463C38.3524 12.0439 38.2198 11.7448 38.0798 11.4489C37.9398 11.153 37.7927 10.8607 37.6384 10.5721C37.4841 10.2834 37.3229 9.99869 37.1546 9.71794C36.9863 9.43719 36.8113 9.16075 36.6294 8.8886C36.4475 8.61644 36.2591 8.34891 36.0642 8.08602C35.8691 7.82311 35.6678 7.56515 35.4602 7.31214C35.2526 7.05911 35.0389 6.81134 34.819 6.56882C34.5993 6.3263 34.3737 6.08931 34.1422 5.85786C33.9107 5.62642 33.6737 5.40079 33.4312 5.18098C33.1887 4.96117 32.9409 4.74744 32.6878 4.5398C32.4349 4.33215 32.1769 4.13083 31.914 3.93584C31.6511 3.74087 31.3835 3.55245 31.1114 3.3706C30.8393 3.18876 30.5628 3.0137 30.282 2.84542C30.0013 2.67715 29.7167 2.51587 29.428 2.36158C29.1393 2.20729 28.8471 2.06016 28.5512 1.92021C28.2552 1.78027 27.956 1.64767 27.6536 1.52241C27.3512 1.39715 27.0459 1.27939 26.7378 1.16912C26.4297 1.05885 26.119 0.956207 25.8058 0.861194C25.4925 0.766179 25.1771 0.678906 24.8596 0.599374C24.5421 0.519843 24.2229 0.44815 23.9018 0.384294C23.5807 0.320438 23.2583 0.264497 22.9346 0.21647C22.6109 0.168443 22.2861 0.128388 21.9604 0.0963054C21.6347 0.064223 21.3083 0.0401515 20.9814 0.0240908C20.6545 0.00803027 20.3273 0 20 0Z"/>
</mask>
<path fill-rule="evenodd" clip-rule="evenodd" d="M20 0C19.6727 0 19.3456 0.00803027 19.0187 0.0240908C18.6917 0.0401515 18.3654 0.064223 18.0397 0.0963054C17.7139 0.128388 17.3892 0.168443 17.0654 0.21647C16.7416 0.264497 16.4192 0.320438 16.0982 0.384294C15.7772 0.44815 15.4579 0.519843 15.1404 0.599374C14.8229 0.678906 14.5075 0.766179 14.1943 0.861194C13.8811 0.956207 13.5704 1.05885 13.2622 1.16912C12.954 1.27939 12.6487 1.39715 12.3463 1.52241C12.0439 1.64767 11.7448 1.78027 11.4489 1.92021C11.153 2.06016 10.8607 2.20729 10.5721 2.36158C10.2834 2.51587 9.99869 2.67715 9.71794 2.84542C9.43719 3.0137 9.16075 3.18876 8.8886 3.3706C8.61644 3.55245 8.34891 3.74087 8.08602 3.93584C7.82311 4.13083 7.56515 4.33215 7.31214 4.5398C7.05911 4.74744 6.81134 4.96117 6.56882 5.18098C6.3263 5.40079 6.08931 5.62642 5.85786 5.85786C5.62642 6.08931 5.40079 6.3263 5.18098 6.56882C4.96117 6.81134 4.74744 7.05911 4.5398 7.31214C4.33215 7.56515 4.13083 7.82311 3.93586 8.08602C3.74087 8.34891 3.55245 8.61644 3.3706 8.8886C3.18876 9.16075 3.0137 9.43719 2.84542 9.71794C2.67715 9.99869 2.51587 10.2834 2.36158 10.5721C2.20729 10.8607 2.06016 11.153 1.92021 11.4489C1.78027 11.7448 1.64767 12.0439 1.52241 12.3463C1.39715 12.6487 1.27939 12.954 1.16912 13.2622C1.05885 13.5704 0.956209 13.8811 0.861194 14.1943C0.766179 14.5075 0.678907 14.8229 0.599376 15.1404C0.519844 15.4579 0.44815 15.7772 0.384294 16.0982C0.320438 16.4192 0.264497 16.7416 0.21647 17.0654C0.168443 17.3892 0.128388 17.7139 0.0963054 18.0397C0.064223 18.3654 0.0401515 18.6917 0.0240908 19.0186C0.00803027 19.3456 0 19.6727 0 20C0 20.3273 0.00803027 20.6545 0.0240908 20.9814C0.0401515 21.3083 0.064223 21.6347 0.0963054 21.9604C0.128388 22.2861 0.168443 22.6109 0.21647 22.9346C0.264497 23.2583 0.320438 23.5807 0.384294 23.9018C0.44815 24.2229 0.519843 24.5421 0.599374 24.8596C0.678906 25.1771 0.766179 25.4924 0.861194 25.8056C0.956207 26.1189 1.05885 26.4297 1.16912 26.7378C1.27939 27.0459 1.39715 27.3512 1.52241 27.6536C1.64767 27.956 1.78027 28.2551 1.92021 28.551C2.06016 28.847 2.20729 29.1393 2.36158 29.428C2.51587 29.7167 2.67715 30.0013 2.84542 30.282C3.0137 30.5628 3.18876 30.8393 3.3706 31.1114C3.55245 31.3835 3.74087 31.6511 3.93584 31.914C4.13083 32.1769 4.33215 32.4349 4.5398 32.6878C4.74744 32.9409 4.96117 33.1887 5.18098 33.4312C5.40079 33.6737 5.62642 33.9107 5.85786 34.1422C6.08931 34.3735 6.3263 34.5991 6.56882 34.819C6.81134 35.0389 7.05911 35.2526 7.31214 35.4602C7.56515 35.6678 7.82311 35.8691 8.08602 36.0642C8.34891 36.2591 8.61644 36.4475 8.8886 36.6294C9.16075 36.8113 9.43719 36.9863 9.71794 37.1546C9.99869 37.3229 10.2834 37.4841 10.5721 37.6384C10.8607 37.7927 11.153 37.9398 11.4489 38.0798C11.7448 38.2197 12.0439 38.3523 12.3463 38.4776C12.6487 38.6028 12.954 38.7205 13.2622 38.8308C13.5704 38.9411 13.8811 39.0437 14.1943 39.1388C14.5075 39.2339 14.8229 39.3211 15.1404 39.4006C15.4579 39.4802 15.7772 39.5519 16.0982 39.6156C16.4192 39.6795 16.7416 39.7355 17.0654 39.7836C17.3892 39.8316 17.7139 39.8716 18.0397 39.9036C18.3654 39.9357 18.6917 39.9599 19.0186 39.976C19.3456 39.992 19.6727 40 20 40C20.3273 40 20.6545 39.992 20.9814 39.976C21.3083 39.9599 21.6347 39.9357 21.9604 39.9036C22.2861 39.8716 22.6109 39.8316 22.9346 39.7836C23.2583 39.7355 23.5807 39.6795 23.9018 39.6156C24.2229 39.5519 24.5421 39.4802 24.8596 39.4006C25.1771 39.3211 25.4924 39.2339 25.8056 39.1388C26.1189 39.0437 26.4297 38.9411 26.7378 38.8308C27.0459 38.7205 27.3512 38.6028 27.6536 38.4776C27.956 38.3523 28.2552 38.2197 28.5512 38.0798C28.8471 37.9398 29.1393 37.7927 29.428 37.6384C29.7167 37.4841 30.0013 37.3229 30.282 37.1546C30.5628 36.9863 30.8393 36.8113 31.1114 36.6294C31.3835 36.4475 31.6511 36.2591 31.914 36.0642C32.1769 35.8691 32.4349 35.6678 32.6878 35.4602C32.9409 35.2526 33.1887 35.0389 33.4312 34.819C33.6737 34.5991 33.9107 34.3735 34.1422 34.1422C34.3737 33.9107 34.5993 33.6737 34.819 33.4312C35.0389 33.1887 35.2526 32.9409 35.4602 32.6878C35.6678 32.4349 35.8691 32.1769 36.0642 31.914C36.2591 31.6511 36.4475 31.3835 36.6294 31.1114C36.8113 30.8393 36.9863 30.5628 37.1546 30.282C37.3229 30.0013 37.4841 29.7167 37.6384 29.428C37.7927 29.1393 37.9398 28.847 38.0798 28.551C38.2198 28.2551 38.3524 27.956 38.4776 27.6536C38.6028 27.3512 38.7205 27.0459 38.8308 26.7378C38.9411 26.4297 39.0437 26.1189 39.1388 25.8056C39.2339 25.4924 39.3211 25.1771 39.4006 24.8596C39.4802 24.5421 39.5519 24.2229 39.6158 23.9018C39.6795 23.5807 39.7355 23.2583 39.7836 22.9346C39.8316 22.6109 39.8717 22.2861 39.9038 21.9604C39.9358 21.6347 39.9599 21.3083 39.976 20.9814C39.992 20.6545 40 20.3273 40 20C40 19.6727 39.992 19.3456 39.976 19.0186C39.9599 18.6917 39.9358 18.3654 39.9038 18.0397C39.8717 17.7139 39.8316 17.3892 39.7836 17.0654C39.7355 16.7416 39.6795 16.4192 39.6158 16.0982C39.5519 15.7772 39.4802 15.4579 39.4006 15.1404C39.3211 14.8229 39.2339 14.5075 39.1388 14.1943C39.0437 13.8811 38.9411 13.5704 38.8308 13.2622C38.7205 12.954 38.6028 12.6487 38.4776 12.3463C38.3524 12.0439 38.2198 11.7448 38.0798 11.4489C37.9398 11.153 37.7927 10.8607 37.6384 10.5721C37.4841 10.2834 37.3229 9.99869 37.1546 9.71794C36.9863 9.43719 36.8113 9.16075 36.6294 8.8886C36.4475 8.61644 36.2591 8.34891 36.0642 8.08602C35.8691 7.82311 35.6678 7.56515 35.4602 7.31214C35.2526 7.05911 35.0389 6.81134 34.819 6.56882C34.5993 6.3263 34.3737 6.08931 34.1422 5.85786C33.9107 5.62642 33.6737 5.40079 33.4312 5.18098C33.1887 4.96117 32.9409 4.74744 32.6878 4.5398C32.4349 4.33215 32.1769 4.13083 31.914 3.93584C31.6511 3.74087 31.3835 3.55245 31.1114 3.3706C30.8393 3.18876 30.5628 3.0137 30.282 2.84542C30.0013 2.67715 29.7167 2.51587 29.428 2.36158C29.1393 2.20729 28.8471 2.06016 28.5512 1.92021C28.2552 1.78027 27.956 1.64767 27.6536 1.52241C27.3512 1.39715 27.0459 1.27939 26.7378 1.16912C26.4297 1.05885 26.119 0.956207 25.8058 0.861194C25.4925 0.766179 25.1771 0.678906 24.8596 0.599374C24.5421 0.519843 24.2229 0.44815 23.9018 0.384294C23.5807 0.320438 23.2583 0.264497 22.9346 0.21647C22.6109 0.168443 22.2861 0.128388 21.9604 0.0963054C21.6347 0.064223 21.3083 0.0401515 20.9814 0.0240908C20.6545 0.00803027 20.3273 0 20 0Z" stroke="#E6E6E6" stroke-width="4" mask="url(#path-1-inside-1_214_12292)"/>
<path fill-rule="evenodd" clip-rule="evenodd" d="M17.4891 24.1695L14.1159 20.7963C13.9094 20.5845 13.7944 20.3001 13.7958 20.0042C13.7971 19.707 13.9158 19.4223 14.126 19.2121C14.3362 19.0019 14.6209 18.8832 14.9181 18.8819C15.214 18.8805 15.4985 18.9955 15.7102 19.2019L17.4916 20.9833C17.7023 21.194 17.9882 21.3124 18.2863 21.3124C18.5844 21.3124 18.8702 21.194 19.081 20.9833L24.241 15.8232C24.4527 15.6153 24.7379 15.4991 25.0347 15.5C25.3325 15.5009 25.6179 15.6196 25.8284 15.8302C26.039 16.0408 26.1577 16.3261 26.1587 16.6239C26.1596 16.9207 26.0435 17.2059 25.8355 17.4176L19.0834 24.1697C18.9787 24.2744 18.8545 24.3575 18.7177 24.4142C18.581 24.4708 18.4344 24.5 18.2863 24.5C18.1383 24.5 17.9917 24.4708 17.855 24.4142C17.7182 24.3575 17.5937 24.2742 17.4891 24.1695Z" fill="#E6E6E6"/>
</svg>
