<svg width="32" height="32" viewBox="0 0 32 32" fill="none" xmlns="http://www.w3.org/2000/svg">
<path fill-rule="evenodd" clip-rule="evenodd" d="M16 0C15.7382 0 15.4765 0.00642421 15.2149 0.0192726C14.9534 0.0321212 14.6923 0.0513784 14.4317 0.0770443C14.1711 0.10271 13.9113 0.134754 13.6523 0.173176C13.3933 0.211597 13.1354 0.25635 12.8786 0.307435C12.6217 0.35852 12.3663 0.415875 12.1123 0.479499C11.8583 0.543125 11.606 0.612944 11.3555 0.688955C11.1049 0.764966 10.8563 0.847079 10.6098 0.935294C10.3632 1.02351 10.119 1.11772 9.87707 1.21793C9.63515 1.31813 9.39583 1.42422 9.15912 1.53617C8.92241 1.64813 8.68858 1.76583 8.45765 1.88926C8.22672 2.0127 7.99895 2.14172 7.77435 2.27634C7.54976 2.41096 7.3286 2.55101 7.11088 2.69648C6.89315 2.84196 6.67913 2.99269 6.46882 3.14867C6.25849 3.30466 6.05212 3.46572 5.84971 3.63184C5.64729 3.79795 5.44907 3.96893 5.25506 4.14478C5.06104 4.32064 4.87145 4.50114 4.68629 4.68629C4.50114 4.87145 4.32064 5.06104 4.14478 5.25506C3.96893 5.44907 3.79795 5.64729 3.63184 5.84971C3.46572 6.05212 3.30467 6.25849 3.14869 6.46882C2.9927 6.67913 2.84196 6.89315 2.69648 7.11088C2.55101 7.3286 2.41096 7.54976 2.27634 7.77435C2.14172 7.99895 2.0127 8.22672 1.88926 8.45765C1.76583 8.68858 1.64813 8.92241 1.53617 9.15912C1.42422 9.39582 1.31813 9.63514 1.21793 9.87706C1.11772 10.119 1.02351 10.3632 0.935294 10.6098C0.84708 10.8563 0.764967 11.1049 0.688955 11.3554C0.612944 11.606 0.543125 11.8583 0.479501 12.1123C0.415875 12.3663 0.35852 12.6217 0.307435 12.8786C0.25635 13.1354 0.211597 13.3933 0.173176 13.6523C0.134754 13.9113 0.10271 14.1711 0.0770443 14.4317C0.0513784 14.6923 0.0321212 14.9534 0.0192726 15.2149C0.00642421 15.4764 0 15.7381 0 16C0 16.2619 0.00642421 16.5236 0.0192726 16.7851C0.0321212 17.0467 0.0513784 17.3077 0.0770443 17.5683C0.10271 17.8289 0.134754 18.0887 0.173176 18.3477C0.211597 18.6067 0.25635 18.8646 0.307435 19.1214C0.35852 19.3783 0.415875 19.6337 0.479499 19.8877C0.543125 20.1417 0.612944 20.3939 0.688955 20.6445C0.764966 20.8951 0.847079 21.1437 0.935294 21.3902C1.02351 21.6367 1.11772 21.881 1.21793 22.1229C1.31813 22.3648 1.42422 22.6041 1.53617 22.8408C1.64813 23.0776 1.76583 23.3115 1.88926 23.5424C2.0127 23.7733 2.14172 24.0011 2.27634 24.2256C2.41096 24.4502 2.55101 24.6714 2.69648 24.8891C2.84196 25.1068 2.99269 25.3209 3.14867 25.5312C3.30466 25.7415 3.46572 25.9479 3.63184 26.1502C3.79795 26.3527 3.96893 26.5509 4.14478 26.745C4.32064 26.939 4.50114 27.1286 4.68629 27.3138C4.87145 27.4988 5.06104 27.6793 5.25506 27.8552C5.44907 28.0311 5.64729 28.2021 5.84971 28.3682C6.05212 28.5342 6.25849 28.6953 6.46882 28.8514C6.67913 29.0073 6.89315 29.158 7.11088 29.3035C7.3286 29.449 7.54976 29.5891 7.77435 29.7237C7.99895 29.8583 8.22672 29.9873 8.45765 30.1107C8.68858 30.2341 8.92241 30.3518 9.15912 30.4638C9.39582 30.5757 9.63514 30.6818 9.87706 30.7821C10.119 30.8822 10.3632 30.9764 10.6098 31.0646C10.8563 31.1529 11.1049 31.235 11.3554 31.311C11.606 31.3871 11.8583 31.4569 12.1123 31.5205C12.3663 31.5842 12.6217 31.6415 12.8786 31.6925C13.1354 31.7436 13.3933 31.7884 13.6523 31.8269C13.9113 31.8653 14.1711 31.8973 14.4317 31.9229C14.6923 31.9486 14.9534 31.9679 15.2149 31.9808C15.4764 31.9936 15.7381 32 16 32C16.2619 32 16.5236 31.9936 16.7851 31.9808C17.0467 31.9679 17.3077 31.9486 17.5683 31.9229C17.8289 31.8973 18.0887 31.8653 18.3477 31.8269C18.6067 31.7884 18.8646 31.7436 19.1214 31.6925C19.3783 31.6415 19.6337 31.5842 19.8877 31.5205C20.1417 31.4569 20.3939 31.3871 20.6445 31.311C20.8951 31.235 21.1437 31.1529 21.3902 31.0646C21.6367 30.9764 21.881 30.8822 22.1229 30.7821C22.3648 30.6818 22.6042 30.5757 22.841 30.4638C23.0777 30.3518 23.3115 30.2341 23.5424 30.1107C23.7733 29.9873 24.0011 29.8583 24.2256 29.7237C24.4502 29.5891 24.6714 29.449 24.8891 29.3035C25.1068 29.158 25.3209 29.0073 25.5312 28.8514C25.7415 28.6953 25.9479 28.5342 26.1502 28.3682C26.3527 28.2021 26.5509 28.0311 26.745 27.8552C26.939 27.6793 27.1286 27.4988 27.3138 27.3138C27.4989 27.1286 27.6794 26.939 27.8552 26.745C28.0311 26.5509 28.2021 26.3527 28.3682 26.1502C28.5342 25.9479 28.6953 25.7415 28.8514 25.5312C29.0073 25.3209 29.158 25.1068 29.3035 24.8891C29.449 24.6714 29.5891 24.4502 29.7237 24.2256C29.8583 24.0011 29.9873 23.7733 30.1107 23.5424C30.2341 23.3115 30.3518 23.0776 30.4638 22.8408C30.5758 22.6041 30.6819 22.3648 30.7821 22.1229C30.8822 21.881 30.9764 21.6367 31.0646 21.3902C31.1529 21.1437 31.235 20.8951 31.311 20.6445C31.3871 20.3939 31.4569 20.1417 31.5205 19.8877C31.5842 19.6337 31.6415 19.3783 31.6926 19.1214C31.7436 18.8646 31.7884 18.6067 31.8269 18.3477C31.8653 18.0887 31.8973 17.8289 31.923 17.5683C31.9486 17.3077 31.9679 17.0467 31.9808 16.7851C31.9936 16.5236 32 16.2619 32 16C32 15.7381 31.9936 15.4764 31.9808 15.2149C31.9679 14.9534 31.9486 14.6923 31.923 14.4317C31.8973 14.1711 31.8653 13.9113 31.8269 13.6523C31.7884 13.3933 31.7436 13.1354 31.6926 12.8786C31.6415 12.6217 31.5842 12.3663 31.5205 12.1123C31.4569 11.8583 31.3871 11.606 31.311 11.3554C31.235 11.1049 31.1529 10.8563 31.0646 10.6098C30.9764 10.3632 30.8822 10.119 30.7821 9.87706C30.6819 9.63514 30.5758 9.39582 30.4638 9.15912C30.3518 8.92241 30.2341 8.68858 30.1107 8.45765C29.9873 8.22672 29.8583 7.99895 29.7237 7.77435C29.5891 7.54976 29.449 7.3286 29.3035 7.11088C29.158 6.89315 29.0073 6.67913 28.8514 6.46882C28.6953 6.25849 28.5342 6.05212 28.3682 5.84971C28.2021 5.64729 28.0311 5.44907 27.8552 5.25506C27.6794 5.06104 27.4989 4.87145 27.3138 4.68629C27.1286 4.50114 26.939 4.32064 26.745 4.14478C26.5509 3.96893 26.3527 3.79795 26.1502 3.63184C25.9479 3.46572 25.7415 3.30466 25.5312 3.14867C25.3209 2.99269 25.1068 2.84196 24.8891 2.69648C24.6714 2.55101 24.4502 2.41096 24.2256 2.27634C24.0011 2.14172 23.7733 2.0127 23.5424 1.88926C23.3115 1.76583 23.0777 1.64813 22.841 1.53617C22.6042 1.42422 22.3648 1.31813 22.1229 1.21793C21.881 1.11772 21.6367 1.02351 21.3902 0.935294C21.1437 0.847079 20.8952 0.764966 20.6446 0.688955C20.394 0.612944 20.1417 0.543125 19.8877 0.479499C19.6337 0.415875 19.3783 0.35852 19.1214 0.307435C18.8646 0.25635 18.6067 0.211597 18.3477 0.173176C18.0887 0.134754 17.8289 0.10271 17.5683 0.0770443C17.3077 0.0513784 17.0467 0.0321212 16.7851 0.0192726C16.5236 0.00642421 16.2619 0 16 0Z" fill="#12C9B1"/>
<path d="M13.6179 16.4921C13.7586 16.6328 13.9493 16.7118 14.1483 16.7118C14.3472 16.7118 14.5379 16.6328 14.6786 16.4921L20.3307 10.84C20.653 10.5226 21.0875 10.3453 21.5399 10.3467C21.993 10.3481 22.4271 10.5287 22.7475 10.8491C23.0679 11.1695 23.2486 11.6036 23.25 12.0567C23.2514 12.5091 23.0741 12.9437 22.7567 13.266C22.7562 13.2665 22.7557 13.267 22.7552 13.2675L15.3613 20.6613L15.3612 20.6614C15.202 20.8208 15.0129 20.9471 14.8048 21.0334C14.5967 21.1196 14.3736 21.164 14.1483 21.164C13.9231 21.164 13.7 21.1196 13.4919 21.0334C13.2838 20.9471 13.0947 20.8208 12.9355 20.6614L12.9353 20.6613L9.23935 16.9653C8.92381 16.6429 8.74797 16.209 8.75002 15.7578C8.75207 15.3055 8.93264 14.8723 9.25245 14.5525C9.57226 14.2327 10.0054 14.0522 10.4577 14.0501C10.9089 14.0481 11.3428 14.2239 11.6652 14.5394L13.6179 16.4921Z" fill="white" stroke="#12C9B1" stroke-width="1.5" stroke-linejoin="round"/>
</svg>
