<svg width="16" height="16" viewBox="0 0 16 16" fill="none" xmlns="http://www.w3.org/2000/svg">
<path d="M8 0C3.55023 0 0 3.55023 0 8C0 12.4498 3.55023 16 8 16C12.4498 16 16 12.4498 16 8C16 3.55023 12.4498 0 8 0ZM7.39198 4.14992C7.55856 3.98334 7.70016 3.87298 7.96877 3.87298C8.26861 3.85008 8.54555 3.99167 8.65591 4.20406C8.78293 4.35398 8.85372 4.68714 8.82249 4.88287C8.82249 4.93909 8.78293 5.30973 8.76627 5.41177L8.54555 8.21864C8.54555 8.49557 8.48933 8.77251 8.37897 8.9849C8.32275 9.15148 8.15825 9.26184 7.93545 9.26184C7.76887 9.26184 7.60437 9.15148 7.54815 8.9849C7.43779 8.70796 7.38157 8.48725 7.38157 8.21864L7.23165 5.46798C7.17543 4.97033 7.17543 5.13691 7.17543 4.85997C7.17751 4.59344 7.23373 4.37064 7.39198 4.14992ZM8.60802 11.9042C8.44144 12.0708 8.22072 12.1249 8.05414 12.1249C7.83342 12.1249 7.61062 12.0687 7.44612 11.9042C7.27954 11.7376 7.16918 11.5169 7.16918 11.2483C7.16918 11.0276 7.2254 10.8048 7.3899 10.6403C7.55648 10.4737 7.7772 10.3634 7.99792 10.3634C8.21864 10.3634 8.44144 10.4737 8.60593 10.6403C8.77251 10.8069 8.82665 11.0276 8.82665 11.2483C8.82249 11.5169 8.76627 11.7376 8.60802 11.9042Z" fill="white"/>
</svg>
