<svg width="40" height="40" viewBox="0 0 40 40" fill="none" xmlns="http://www.w3.org/2000/svg">
<mask id="path-1-inside-1_214_12289" fill="white">
<path fill-rule="evenodd" clip-rule="evenodd" d="M20 0C19.6727 0 19.3456 0.00803027 19.0187 0.0240908C18.6917 0.0401515 18.3654 0.064223 18.0397 0.0963054C17.7139 0.128388 17.3892 0.168443 17.0654 0.21647C16.7416 0.264497 16.4192 0.320438 16.0982 0.384294C15.7772 0.44815 15.4579 0.519843 15.1404 0.599374C14.8229 0.678906 14.5075 0.766179 14.1943 0.861194C13.8811 0.956207 13.5704 1.05885 13.2622 1.16912C12.954 1.27939 12.6487 1.39715 12.3463 1.52241C12.0439 1.64767 11.7448 1.78027 11.4489 1.92021C11.153 2.06016 10.8607 2.20729 10.5721 2.36158C10.2834 2.51587 9.99869 2.67715 9.71794 2.84542C9.43719 3.0137 9.16075 3.18876 8.8886 3.3706C8.61644 3.55245 8.34891 3.74087 8.08602 3.93584C7.82311 4.13083 7.56515 4.33215 7.31214 4.5398C7.05911 4.74744 6.81134 4.96117 6.56882 5.18098C6.3263 5.40079 6.08931 5.62642 5.85786 5.85786C5.62642 6.08931 5.40079 6.3263 5.18098 6.56882C4.96117 6.81134 4.74744 7.05911 4.5398 7.31214C4.33215 7.56515 4.13083 7.82311 3.93586 8.08602C3.74087 8.34891 3.55245 8.61644 3.3706 8.8886C3.18876 9.16075 3.0137 9.43719 2.84542 9.71794C2.67715 9.99869 2.51587 10.2834 2.36158 10.5721C2.20729 10.8607 2.06016 11.153 1.92021 11.4489C1.78027 11.7448 1.64767 12.0439 1.52241 12.3463C1.39715 12.6487 1.27939 12.954 1.16912 13.2622C1.05885 13.5704 0.956209 13.8811 0.861194 14.1943C0.766179 14.5075 0.678907 14.8229 0.599376 15.1404C0.519844 15.4579 0.44815 15.7772 0.384294 16.0982C0.320438 16.4192 0.264497 16.7416 0.21647 17.0654C0.168443 17.3892 0.128388 17.7139 0.0963054 18.0397C0.064223 18.3654 0.0401515 18.6917 0.0240908 19.0186C0.00803027 19.3456 0 19.6727 0 20C0 20.3273 0.00803027 20.6545 0.0240908 20.9814C0.0401515 21.3083 0.064223 21.6347 0.0963054 21.9604C0.128388 22.2861 0.168443 22.6109 0.21647 22.9346C0.264497 23.2583 0.320438 23.5807 0.384294 23.9018C0.44815 24.2229 0.519843 24.5421 0.599374 24.8596C0.678906 25.1771 0.766179 25.4924 0.861194 25.8056C0.956207 26.1189 1.05885 26.4297 1.16912 26.7378C1.27939 27.0459 1.39715 27.3512 1.52241 27.6536C1.64767 27.956 1.78027 28.2551 1.92021 28.551C2.06016 28.847 2.20729 29.1393 2.36158 29.428C2.51587 29.7167 2.67715 30.0013 2.84542 30.282C3.0137 30.5628 3.18876 30.8393 3.3706 31.1114C3.55245 31.3835 3.74087 31.6511 3.93584 31.914C4.13083 32.1769 4.33215 32.4349 4.5398 32.6878C4.74744 32.9409 4.96117 33.1887 5.18098 33.4312C5.40079 33.6737 5.62642 33.9107 5.85786 34.1422C6.08931 34.3735 6.3263 34.5991 6.56882 34.819C6.81134 35.0389 7.05911 35.2526 7.31214 35.4602C7.56515 35.6678 7.82311 35.8691 8.08602 36.0642C8.34891 36.2591 8.61644 36.4475 8.8886 36.6294C9.16075 36.8113 9.43719 36.9863 9.71794 37.1546C9.99869 37.3229 10.2834 37.4841 10.5721 37.6384C10.8607 37.7927 11.153 37.9398 11.4489 38.0798C11.7448 38.2197 12.0439 38.3523 12.3463 38.4776C12.6487 38.6028 12.954 38.7205 13.2622 38.8308C13.5704 38.9411 13.8811 39.0437 14.1943 39.1388C14.5075 39.2339 14.8229 39.3211 15.1404 39.4006C15.4579 39.4802 15.7772 39.5519 16.0982 39.6156C16.4192 39.6795 16.7416 39.7355 17.0654 39.7836C17.3892 39.8316 17.7139 39.8716 18.0397 39.9036C18.3654 39.9357 18.6917 39.9599 19.0186 39.976C19.3456 39.992 19.6727 40 20 40C20.3273 40 20.6545 39.992 20.9814 39.976C21.3083 39.9599 21.6347 39.9357 21.9604 39.9036C22.2861 39.8716 22.6109 39.8316 22.9346 39.7836C23.2583 39.7355 23.5807 39.6795 23.9018 39.6156C24.2229 39.5519 24.5421 39.4802 24.8596 39.4006C25.1771 39.3211 25.4924 39.2339 25.8056 39.1388C26.1189 39.0437 26.4297 38.9411 26.7378 38.8308C27.0459 38.7205 27.3512 38.6028 27.6536 38.4776C27.956 38.3523 28.2552 38.2197 28.5512 38.0798C28.8471 37.9398 29.1393 37.7927 29.428 37.6384C29.7167 37.4841 30.0013 37.3229 30.282 37.1546C30.5628 36.9863 30.8393 36.8113 31.1114 36.6294C31.3835 36.4475 31.6511 36.2591 31.914 36.0642C32.1769 35.8691 32.4349 35.6678 32.6878 35.4602C32.9409 35.2526 33.1887 35.0389 33.4312 34.819C33.6737 34.5991 33.9107 34.3735 34.1422 34.1422C34.3737 33.9107 34.5993 33.6737 34.819 33.4312C35.0389 33.1887 35.2526 32.9409 35.4602 32.6878C35.6678 32.4349 35.8691 32.1769 36.0642 31.914C36.2591 31.6511 36.4475 31.3835 36.6294 31.1114C36.8113 30.8393 36.9863 30.5628 37.1546 30.282C37.3229 30.0013 37.4841 29.7167 37.6384 29.428C37.7927 29.1393 37.9398 28.847 38.0798 28.551C38.2198 28.2551 38.3524 27.956 38.4776 27.6536C38.6028 27.3512 38.7205 27.0459 38.8308 26.7378C38.9411 26.4297 39.0437 26.1189 39.1388 25.8056C39.2339 25.4924 39.3211 25.1771 39.4006 24.8596C39.4802 24.5421 39.5519 24.2229 39.6158 23.9018C39.6795 23.5807 39.7355 23.2583 39.7836 22.9346C39.8316 22.6109 39.8717 22.2861 39.9038 21.9604C39.9358 21.6347 39.9599 21.3083 39.976 20.9814C39.992 20.6545 40 20.3273 40 20C40 19.6727 39.992 19.3456 39.976 19.0186C39.9599 18.6917 39.9358 18.3654 39.9038 18.0397C39.8717 17.7139 39.8316 17.3892 39.7836 17.0654C39.7355 16.7416 39.6795 16.4192 39.6158 16.0982C39.5519 15.7772 39.4802 15.4579 39.4006 15.1404C39.3211 14.8229 39.2339 14.5075 39.1388 14.1943C39.0437 13.8811 38.9411 13.5704 38.8308 13.2622C38.7205 12.954 38.6028 12.6487 38.4776 12.3463C38.3524 12.0439 38.2198 11.7448 38.0798 11.4489C37.9398 11.153 37.7927 10.8607 37.6384 10.5721C37.4841 10.2834 37.3229 9.99869 37.1546 9.71794C36.9863 9.43719 36.8113 9.16075 36.6294 8.8886C36.4475 8.61644 36.2591 8.34891 36.0642 8.08602C35.8691 7.82311 35.6678 7.56515 35.4602 7.31214C35.2526 7.05911 35.0389 6.81134 34.819 6.56882C34.5993 6.3263 34.3737 6.08931 34.1422 5.85786C33.9107 5.62642 33.6737 5.40079 33.4312 5.18098C33.1887 4.96117 32.9409 4.74744 32.6878 4.5398C32.4349 4.33215 32.1769 4.13083 31.914 3.93584C31.6511 3.74087 31.3835 3.55245 31.1114 3.3706C30.8393 3.18876 30.5628 3.0137 30.282 2.84542C30.0013 2.67715 29.7167 2.51587 29.428 2.36158C29.1393 2.20729 28.8471 2.06016 28.5512 1.92021C28.2552 1.78027 27.956 1.64767 27.6536 1.52241C27.3512 1.39715 27.0459 1.27939 26.7378 1.16912C26.4297 1.05885 26.119 0.956207 25.8058 0.861194C25.4925 0.766179 25.1771 0.678906 24.8596 0.599374C24.5421 0.519843 24.2229 0.44815 23.9018 0.384294C23.5807 0.320438 23.2583 0.264497 22.9346 0.21647C22.6109 0.168443 22.2861 0.128388 21.9604 0.0963054C21.6347 0.064223 21.3083 0.0401515 20.9814 0.0240908C20.6545 0.00803027 20.3273 0 20 0Z"/>
</mask>
<path fill-rule="evenodd" clip-rule="evenodd" d="M20 0C19.6727 0 19.3456 0.00803027 19.0187 0.0240908C18.6917 0.0401515 18.3654 0.064223 18.0397 0.0963054C17.7139 0.128388 17.3892 0.168443 17.0654 0.21647C16.7416 0.264497 16.4192 0.320438 16.0982 0.384294C15.7772 0.44815 15.4579 0.519843 15.1404 0.599374C14.8229 0.678906 14.5075 0.766179 14.1943 0.861194C13.8811 0.956207 13.5704 1.05885 13.2622 1.16912C12.954 1.27939 12.6487 1.39715 12.3463 1.52241C12.0439 1.64767 11.7448 1.78027 11.4489 1.92021C11.153 2.06016 10.8607 2.20729 10.5721 2.36158C10.2834 2.51587 9.99869 2.67715 9.71794 2.84542C9.43719 3.0137 9.16075 3.18876 8.8886 3.3706C8.61644 3.55245 8.34891 3.74087 8.08602 3.93584C7.82311 4.13083 7.56515 4.33215 7.31214 4.5398C7.05911 4.74744 6.81134 4.96117 6.56882 5.18098C6.3263 5.40079 6.08931 5.62642 5.85786 5.85786C5.62642 6.08931 5.40079 6.3263 5.18098 6.56882C4.96117 6.81134 4.74744 7.05911 4.5398 7.31214C4.33215 7.56515 4.13083 7.82311 3.93586 8.08602C3.74087 8.34891 3.55245 8.61644 3.3706 8.8886C3.18876 9.16075 3.0137 9.43719 2.84542 9.71794C2.67715 9.99869 2.51587 10.2834 2.36158 10.5721C2.20729 10.8607 2.06016 11.153 1.92021 11.4489C1.78027 11.7448 1.64767 12.0439 1.52241 12.3463C1.39715 12.6487 1.27939 12.954 1.16912 13.2622C1.05885 13.5704 0.956209 13.8811 0.861194 14.1943C0.766179 14.5075 0.678907 14.8229 0.599376 15.1404C0.519844 15.4579 0.44815 15.7772 0.384294 16.0982C0.320438 16.4192 0.264497 16.7416 0.21647 17.0654C0.168443 17.3892 0.128388 17.7139 0.0963054 18.0397C0.064223 18.3654 0.0401515 18.6917 0.0240908 19.0186C0.00803027 19.3456 0 19.6727 0 20C0 20.3273 0.00803027 20.6545 0.0240908 20.9814C0.0401515 21.3083 0.064223 21.6347 0.0963054 21.9604C0.128388 22.2861 0.168443 22.6109 0.21647 22.9346C0.264497 23.2583 0.320438 23.5807 0.384294 23.9018C0.44815 24.2229 0.519843 24.5421 0.599374 24.8596C0.678906 25.1771 0.766179 25.4924 0.861194 25.8056C0.956207 26.1189 1.05885 26.4297 1.16912 26.7378C1.27939 27.0459 1.39715 27.3512 1.52241 27.6536C1.64767 27.956 1.78027 28.2551 1.92021 28.551C2.06016 28.847 2.20729 29.1393 2.36158 29.428C2.51587 29.7167 2.67715 30.0013 2.84542 30.282C3.0137 30.5628 3.18876 30.8393 3.3706 31.1114C3.55245 31.3835 3.74087 31.6511 3.93584 31.914C4.13083 32.1769 4.33215 32.4349 4.5398 32.6878C4.74744 32.9409 4.96117 33.1887 5.18098 33.4312C5.40079 33.6737 5.62642 33.9107 5.85786 34.1422C6.08931 34.3735 6.3263 34.5991 6.56882 34.819C6.81134 35.0389 7.05911 35.2526 7.31214 35.4602C7.56515 35.6678 7.82311 35.8691 8.08602 36.0642C8.34891 36.2591 8.61644 36.4475 8.8886 36.6294C9.16075 36.8113 9.43719 36.9863 9.71794 37.1546C9.99869 37.3229 10.2834 37.4841 10.5721 37.6384C10.8607 37.7927 11.153 37.9398 11.4489 38.0798C11.7448 38.2197 12.0439 38.3523 12.3463 38.4776C12.6487 38.6028 12.954 38.7205 13.2622 38.8308C13.5704 38.9411 13.8811 39.0437 14.1943 39.1388C14.5075 39.2339 14.8229 39.3211 15.1404 39.4006C15.4579 39.4802 15.7772 39.5519 16.0982 39.6156C16.4192 39.6795 16.7416 39.7355 17.0654 39.7836C17.3892 39.8316 17.7139 39.8716 18.0397 39.9036C18.3654 39.9357 18.6917 39.9599 19.0186 39.976C19.3456 39.992 19.6727 40 20 40C20.3273 40 20.6545 39.992 20.9814 39.976C21.3083 39.9599 21.6347 39.9357 21.9604 39.9036C22.2861 39.8716 22.6109 39.8316 22.9346 39.7836C23.2583 39.7355 23.5807 39.6795 23.9018 39.6156C24.2229 39.5519 24.5421 39.4802 24.8596 39.4006C25.1771 39.3211 25.4924 39.2339 25.8056 39.1388C26.1189 39.0437 26.4297 38.9411 26.7378 38.8308C27.0459 38.7205 27.3512 38.6028 27.6536 38.4776C27.956 38.3523 28.2552 38.2197 28.5512 38.0798C28.8471 37.9398 29.1393 37.7927 29.428 37.6384C29.7167 37.4841 30.0013 37.3229 30.282 37.1546C30.5628 36.9863 30.8393 36.8113 31.1114 36.6294C31.3835 36.4475 31.6511 36.2591 31.914 36.0642C32.1769 35.8691 32.4349 35.6678 32.6878 35.4602C32.9409 35.2526 33.1887 35.0389 33.4312 34.819C33.6737 34.5991 33.9107 34.3735 34.1422 34.1422C34.3737 33.9107 34.5993 33.6737 34.819 33.4312C35.0389 33.1887 35.2526 32.9409 35.4602 32.6878C35.6678 32.4349 35.8691 32.1769 36.0642 31.914C36.2591 31.6511 36.4475 31.3835 36.6294 31.1114C36.8113 30.8393 36.9863 30.5628 37.1546 30.282C37.3229 30.0013 37.4841 29.7167 37.6384 29.428C37.7927 29.1393 37.9398 28.847 38.0798 28.551C38.2198 28.2551 38.3524 27.956 38.4776 27.6536C38.6028 27.3512 38.7205 27.0459 38.8308 26.7378C38.9411 26.4297 39.0437 26.1189 39.1388 25.8056C39.2339 25.4924 39.3211 25.1771 39.4006 24.8596C39.4802 24.5421 39.5519 24.2229 39.6158 23.9018C39.6795 23.5807 39.7355 23.2583 39.7836 22.9346C39.8316 22.6109 39.8717 22.2861 39.9038 21.9604C39.9358 21.6347 39.9599 21.3083 39.976 20.9814C39.992 20.6545 40 20.3273 40 20C40 19.6727 39.992 19.3456 39.976 19.0186C39.9599 18.6917 39.9358 18.3654 39.9038 18.0397C39.8717 17.7139 39.8316 17.3892 39.7836 17.0654C39.7355 16.7416 39.6795 16.4192 39.6158 16.0982C39.5519 15.7772 39.4802 15.4579 39.4006 15.1404C39.3211 14.8229 39.2339 14.5075 39.1388 14.1943C39.0437 13.8811 38.9411 13.5704 38.8308 13.2622C38.7205 12.954 38.6028 12.6487 38.4776 12.3463C38.3524 12.0439 38.2198 11.7448 38.0798 11.4489C37.9398 11.153 37.7927 10.8607 37.6384 10.5721C37.4841 10.2834 37.3229 9.99869 37.1546 9.71794C36.9863 9.43719 36.8113 9.16075 36.6294 8.8886C36.4475 8.61644 36.2591 8.34891 36.0642 8.08602C35.8691 7.82311 35.6678 7.56515 35.4602 7.31214C35.2526 7.05911 35.0389 6.81134 34.819 6.56882C34.5993 6.3263 34.3737 6.08931 34.1422 5.85786C33.9107 5.62642 33.6737 5.40079 33.4312 5.18098C33.1887 4.96117 32.9409 4.74744 32.6878 4.5398C32.4349 4.33215 32.1769 4.13083 31.914 3.93584C31.6511 3.74087 31.3835 3.55245 31.1114 3.3706C30.8393 3.18876 30.5628 3.0137 30.282 2.84542C30.0013 2.67715 29.7167 2.51587 29.428 2.36158C29.1393 2.20729 28.8471 2.06016 28.5512 1.92021C28.2552 1.78027 27.956 1.64767 27.6536 1.52241C27.3512 1.39715 27.0459 1.27939 26.7378 1.16912C26.4297 1.05885 26.119 0.956207 25.8058 0.861194C25.4925 0.766179 25.1771 0.678906 24.8596 0.599374C24.5421 0.519843 24.2229 0.44815 23.9018 0.384294C23.5807 0.320438 23.2583 0.264497 22.9346 0.21647C22.6109 0.168443 22.2861 0.128388 21.9604 0.0963054C21.6347 0.064223 21.3083 0.0401515 20.9814 0.0240908C20.6545 0.00803027 20.3273 0 20 0Z" stroke="#E3446E" stroke-width="4" mask="url(#path-1-inside-1_214_12289)"/>
<path fill-rule="evenodd" clip-rule="evenodd" d="M14.3591 23.9332L18.2937 20.0041L14.3507 16.0668C14.2385 15.9547 14.1519 15.8254 14.0912 15.6789C14.0304 15.5323 14 15.3798 14 15.2212C14 15.0627 14.0304 14.9101 14.0912 14.7636C14.1519 14.6171 14.2385 14.4878 14.3507 14.3757C14.4063 14.3202 14.4668 14.2706 14.5322 14.227C14.5976 14.1834 14.6666 14.1465 14.7392 14.1165C14.8119 14.0864 14.8868 14.0637 14.9639 14.0484C15.041 14.0331 15.1189 14.0255 15.1975 14.0255C15.2761 14.0255 15.354 14.0331 15.4311 14.0484C15.5082 14.0637 15.5831 14.0864 15.6558 14.1165C15.7284 14.1465 15.7974 14.1834 15.8628 14.227C15.9282 14.2706 15.9887 14.3202 16.0443 14.3757L19.9872 18.313L23.9557 14.3502C24.0112 14.2947 24.0716 14.2452 24.137 14.2015C24.2024 14.1579 24.2714 14.1211 24.344 14.091C24.4167 14.061 24.4916 14.0383 24.5687 14.023C24.6458 14.0077 24.7237 14 24.8024 14C24.881 14 24.9589 14.0077 25.036 14.023C25.1131 14.0383 25.188 14.061 25.2607 14.091C25.3333 14.1211 25.4023 14.1579 25.4677 14.2015C25.5331 14.2452 25.5936 14.2947 25.6492 14.3502C25.7615 14.4624 25.848 14.5917 25.9087 14.7382C25.9695 14.8847 25.9999 15.0372 25.9999 15.1958C25.9999 15.3544 25.9695 15.5069 25.9087 15.6534C25.848 15.7999 25.7615 15.9292 25.6492 16.0413L21.6807 20.0041L25.6408 23.9585C25.7531 24.0707 25.8396 24.2001 25.9004 24.3466C25.9612 24.4931 25.9916 24.6456 25.9916 24.8042C25.9916 24.9627 25.9612 25.1152 25.9004 25.2617C25.8396 25.4082 25.7531 25.5376 25.6408 25.6498C25.5852 25.7053 25.5247 25.7548 25.4593 25.7984C25.394 25.842 25.325 25.8789 25.2523 25.9089C25.1797 25.9389 25.1048 25.9616 25.0277 25.9769C24.9505 25.9922 24.8726 25.9999 24.794 26C24.7154 26 24.6376 25.9923 24.5605 25.9769C24.4833 25.9616 24.4084 25.9389 24.3358 25.9089C24.2632 25.8789 24.1942 25.842 24.1288 25.7984C24.0634 25.7548 24.0029 25.7053 23.9473 25.6498L19.9872 21.6952L16.0526 25.6243C15.997 25.6798 15.9365 25.7293 15.8711 25.7729C15.8057 25.8166 15.7367 25.8535 15.6641 25.8835C15.5914 25.9135 15.5165 25.9362 15.4394 25.9516C15.3623 25.9669 15.2844 25.9745 15.2058 25.9745C15.1272 25.9745 15.0493 25.9669 14.9722 25.9516C14.8951 25.9362 14.8202 25.9135 14.7475 25.8835C14.6749 25.8535 14.6059 25.8166 14.5405 25.7729C14.4751 25.7293 14.4147 25.6798 14.3591 25.6243C14.2468 25.5122 14.1602 25.3829 14.0995 25.2364C14.0387 25.0899 14.0083 24.9373 14.0083 24.7787C14.0083 24.6201 14.0387 24.4676 14.0995 24.3211C14.1602 24.1746 14.2468 24.0453 14.3591 23.9332Z" fill="#E3446E"/>
</svg>
