<svg width="12" height="12" viewBox="0 0 12 12" fill="none" xmlns="http://www.w3.org/2000/svg">
<path fill-rule="evenodd" clip-rule="evenodd" d="M0.359051 9.93317L4.29367 6.00412L0.350742 2.0668C0.238453 1.95467 0.151924 1.82535 0.0911543 1.67886C0.030385 1.53235 0 1.37981 0 1.22124C0 1.06267 0.030385 0.910135 0.0911543 0.763626C0.151924 0.617128 0.238453 0.487815 0.350742 0.375686C0.406341 0.320167 0.46683 0.270597 0.532209 0.226977C0.597589 0.183358 0.666598 0.146524 0.739237 0.116474C0.811876 0.0864244 0.886756 0.0637448 0.963875 0.048435C1.04099 0.0331152 1.11887 0.0254549 1.1975 0.0254549C1.27613 0.0254549 1.354 0.0331152 1.43112 0.048435C1.50824 0.0637448 1.58312 0.0864244 1.65576 0.116474C1.7284 0.146524 1.7974 0.183358 1.86278 0.226977C1.92816 0.270597 1.98865 0.320167 2.04425 0.375686L5.98718 4.31302L9.95569 0.350246C10.0112 0.294727 10.0716 0.245152 10.137 0.201523C10.2024 0.157903 10.2714 0.121069 10.344 0.0910192C10.4167 0.0609796 10.4916 0.0382999 10.5687 0.0229801C10.6458 0.00766029 10.7237 0 10.8024 0C10.881 0 10.9589 0.00766029 11.036 0.0229801C11.1131 0.0382999 11.188 0.0609796 11.2607 0.0910192C11.3333 0.121069 11.4023 0.157903 11.4677 0.201523C11.5331 0.245152 11.5936 0.294727 11.6492 0.350246C11.7615 0.462365 11.848 0.591678 11.9087 0.738186C11.9695 0.884685 11.9999 1.03722 11.9999 1.19579C11.9999 1.35435 11.9695 1.50689 11.9087 1.6534C11.848 1.7999 11.7615 1.92921 11.6492 2.04134L7.68066 6.00412L11.6408 9.95852C11.7531 10.0707 11.8396 10.2001 11.9004 10.3466C11.9612 10.4931 11.9916 10.6456 11.9916 10.8042C11.9916 10.9627 11.9612 11.1152 11.9004 11.2617C11.8396 11.4082 11.7531 11.5376 11.6408 11.6498C11.5852 11.7053 11.5247 11.7548 11.4593 11.7984C11.394 11.842 11.325 11.8789 11.2523 11.9089C11.1797 11.9389 11.1048 11.9616 11.0277 11.9769C10.9505 11.9922 10.8726 11.9999 10.794 12C10.7154 12 10.6376 11.9923 10.5605 11.9769C10.4833 11.9616 10.4084 11.9389 10.3358 11.9089C10.2632 11.8789 10.1942 11.842 10.1288 11.7984C10.0634 11.7548 10.0029 11.7053 9.94729 11.6498L5.98718 7.6952L2.05256 11.6243C1.99696 11.6798 1.93647 11.7293 1.87109 11.7729C1.80572 11.8166 1.73672 11.8535 1.66407 11.8835C1.59143 11.9135 1.51655 11.9362 1.43943 11.9516C1.36231 11.9669 1.28444 11.9745 1.20581 11.9745C1.12718 11.9745 1.0493 11.9669 0.972184 11.9516C0.895075 11.9362 0.820197 11.9135 0.747547 11.8835C0.674908 11.8535 0.605899 11.8166 0.54052 11.7729C0.475141 11.7293 0.41465 11.6798 0.359051 11.6243C0.246772 11.5122 0.160248 11.3829 0.099479 11.2364C0.0387097 11.0899 0.00832548 10.9373 0.00832548 10.7787C0.00832548 10.6201 0.0387097 10.4676 0.099479 10.3211C0.160248 10.1746 0.246772 10.0453 0.359051 9.93317Z" fill="#E3446E"/>
</svg>
