<svg width="16" height="16" viewBox="0 0 16 16" fill="none" xmlns="http://www.w3.org/2000/svg">
<path d="M7.65625 0C3.42781 0 0 3.42781 0 7.65625C0 11.8847 3.42781 15.3125 7.65625 15.3125C11.8847 15.3125 15.3125 11.8847 15.3125 7.65625C15.3125 3.42781 11.8847 0 7.65625 0ZM11.7134 5.77891L7.17375 10.3184C6.95703 10.5352 6.60563 10.5352 6.38891 10.3184L3.59906 7.52859C3.38234 7.31187 3.38234 6.96047 3.59906 6.74375C3.81578 6.52703 4.16719 6.52703 4.38391 6.74375L6.78141 9.14125L10.9286 4.99406C11.1453 4.77734 11.4967 4.77734 11.7134 4.99406C11.9302 5.21078 11.9302 5.56219 11.7134 5.77891Z" fill="#FDFDFD"/>
</svg>
