<svg width="16" height="16" viewBox="0 0 16 16" fill="none" xmlns="http://www.w3.org/2000/svg">
<rect width="16" height="16" rx="8" fill="url(#paint0_linear_227_1004)"/>
<rect width="16" height="16" rx="8" fill="black"/>
<g clip-path="url(#clip0_227_1004)">
<path d="M8.47106 6.83203C8.61553 6.91263 8.74889 7.01328 8.8678 7.13218C9.56007 7.82447 9.57143 8.93982 8.90185 9.64597L8.8678 9.68093L7.64804 10.9007C6.94423 11.6045 5.80312 11.6045 5.0993 10.9007C4.39549 10.1969 4.39549 9.05576 5.0993 8.35194L5.81082 7.64042C5.95326 7.49797 6.18421 7.49797 6.32664 7.64042C6.46909 7.78286 6.46909 8.0138 6.32664 8.15624L5.61513 8.86776C5.19619 9.2867 5.19619 9.96593 5.61513 10.3849C6.02475 10.7945 6.68323 10.8036 7.10392 10.4122L7.13222 10.3849L8.35198 9.16511C8.77091 8.74617 8.77091 8.06694 8.35198 7.64801C8.29346 7.58938 8.22837 7.53771 8.158 7.494L8.11564 7.46907C7.93972 7.37093 7.87668 7.14876 7.97483 6.97284C8.07298 6.79693 8.29514 6.73388 8.47106 6.83203ZM10.9007 5.09927C11.593 5.79155 11.6043 6.9069 10.9348 7.61305L10.8754 7.67334L10.1892 8.35954C10.0468 8.50198 9.81582 8.50198 9.67338 8.35954C9.53713 8.22329 9.53121 8.00607 9.65561 7.86279L9.67338 7.84372L10.3849 7.13219C10.8038 6.71326 10.8038 6.03403 10.3849 5.6151C9.97527 5.20547 9.31679 5.19636 8.89611 5.58779L8.8678 5.6151L7.64804 6.83485C7.22911 7.25379 7.22911 7.93301 7.64804 8.35195C7.71093 8.41483 7.78018 8.46889 7.85461 8.51363L7.89988 8.53936C8.0774 8.63457 8.14413 8.85566 8.04893 9.03318C7.95371 9.2107 7.73263 9.27744 7.5551 9.18222C7.40061 9.09936 7.2583 8.99385 7.13222 8.86777C6.43995 8.17549 6.4286 7.06014 7.09818 6.35399L7.13222 6.31903L8.35198 5.09927C9.05579 4.39546 10.1969 4.39546 10.9007 5.09927Z" fill="white"/>
</g>
<defs>
<linearGradient id="paint0_linear_227_1004" x1="11.2593" y1="-1.24065e-07" x2="4.74074" y2="16" gradientUnits="userSpaceOnUse">
<stop stop-color="#0084FF"/>
<stop offset="1" stop-color="#00FFD5"/>
</linearGradient>
<clipPath id="clip0_227_1004">
<rect width="8" height="8" fill="white" transform="translate(4 4)"/>
</clipPath>
</defs>
</svg>
