<svg width="22" height="22" viewBox="0 0 22 22" fill="none" xmlns="http://www.w3.org/2000/svg">
<path d="M18.8571 0H5.6964C5.58837 0 5.49997 0.0883929 5.49997 0.196429V1.57143C5.49997 1.67946 5.58837 1.76786 5.6964 1.76786H17.875V18.6607C17.875 18.7687 17.9634 18.8571 18.0714 18.8571H19.4464C19.5544 18.8571 19.6428 18.7687 19.6428 18.6607V0.785714C19.6428 0.351116 19.2917 0 18.8571 0ZM15.7143 3.14286H3.14283C2.70823 3.14286 2.35712 3.49397 2.35712 3.92857V16.9592C2.35712 17.1679 2.4406 17.3667 2.58792 17.5141L6.84305 21.7692C6.89707 21.8232 6.95846 21.8674 7.02475 21.9042V21.9509H7.12788C7.21381 21.9828 7.30466 22 7.39797 22H15.7143C16.1489 22 16.5 21.6489 16.5 21.2143V3.92857C16.5 3.49397 16.1489 3.14286 15.7143 3.14286ZM7.80801 20.4286H7.8031L4.12497 16.7504V16.7455H7.80801V20.4286Z" fill="black"/>
</svg>
