<svg width="22" height="22" viewBox="0 0 22 22" fill="none" xmlns="http://www.w3.org/2000/svg">
<path d="M11 0C8.08262 0 5.28473 1.15892 3.22183 3.22182C1.15893 5.28472 0 8.08261 0 11C0 13.9174 1.15893 16.7153 3.22183 18.7782C5.28473 20.8411 8.08262 22 11 22C13.9174 22 16.7153 20.8411 18.7782 18.7782C20.8411 16.7153 22 13.9174 22 11C22 8.08261 20.8411 5.28472 18.7782 3.22182C16.7153 1.15892 13.9174 0 11 0ZM11 2.31515C12.1404 2.31508 13.2697 2.53965 14.3234 2.97603C15.377 3.41242 16.3344 4.05206 17.1408 4.85845C17.9473 5.66484 18.587 6.62218 19.0234 7.6758C19.4598 8.72942 19.6845 9.85869 19.6845 10.9991C19.6845 12.1396 19.4598 13.2688 19.0234 14.3225C18.587 15.3761 17.9473 16.3334 17.1408 17.1398C16.3344 17.9462 15.377 18.5858 14.3234 19.0222C13.2697 19.4586 12.1404 19.6832 11 19.6831C8.69695 19.683 6.48828 18.768 4.85982 17.1395C3.23137 15.5109 2.31652 13.3022 2.31652 10.9991C2.31652 8.69608 3.23137 6.48735 4.85982 4.8588C6.48828 3.23026 8.69695 2.31528 11 2.31515ZM11 9.26233C10.1715 9.26233 9.49941 9.93447 9.49941 10.7629V15.8674C9.49941 16.2653 9.65751 16.647 9.93892 16.9284C10.2203 17.2099 10.602 17.368 11 17.368C11.398 17.368 11.7797 17.2099 12.0611 16.9284C12.3425 16.647 12.5006 16.2653 12.5006 15.8674V10.7629C12.5006 9.93447 11.8285 9.26233 11 9.26233ZM11.0087 5.25207C10.5919 5.25207 10.2237 5.39101 9.9284 5.66543C9.78981 5.80229 9.68035 5.96579 9.60662 6.14607C9.5329 6.32636 9.49643 6.5197 9.49941 6.71445C9.49941 7.13649 9.65572 7.5099 9.95097 7.78606C10.236 8.05476 10.6153 8.20072 11.0069 8.19247C11.4018 8.19613 11.7822 8.04456 12.0664 7.77042C12.2097 7.63541 12.3226 7.47139 12.3974 7.28929C12.4723 7.10719 12.5075 6.91122 12.5006 6.71445C12.5006 6.28894 12.3564 5.93289 12.0664 5.65848C11.7805 5.38892 11.3998 5.2429 11.0069 5.25207H11.0087Z" fill="#50555C"/>
</svg>
