<svg width="30" height="30" viewBox="0 0 30 30" fill="none" xmlns="http://www.w3.org/2000/svg">
<rect width="30" height="30" rx="15" fill="white"/>
<path d="M22.2608 19.5682C21.9698 19.5656 21.6915 19.4487 21.4857 19.2427C21.2799 19.0367 21.1631 18.7581 21.1605 18.4668V11.1952C21.1632 9.8511 20.6327 8.56089 19.6855 7.60809C18.7384 6.6553 17.4521 6.11787 16.1093 6.11389C16.1093 5.82344 15.994 5.5449 15.7888 5.33952C15.5837 5.13415 15.3054 5.01877 15.0152 5.01877C14.7251 5.01877 14.4468 5.13415 14.2417 5.33952C14.0365 5.5449 13.9212 5.82344 13.9212 6.11389C13.2561 6.11487 12.5976 6.24716 11.9836 6.50318C11.3695 6.75919 10.812 7.13392 10.3428 7.60589C9.8736 8.07787 9.50201 8.63784 9.24928 9.25375C8.99656 9.86965 8.86766 10.5294 8.86996 11.1952V18.4668C8.86963 18.7588 8.7536 19.0388 8.54733 19.2453C8.34106 19.4517 8.06139 19.5679 7.76968 19.5682C7.47953 19.5682 7.20126 19.6836 6.99609 19.889C6.79092 20.0943 6.67566 20.3729 6.67566 20.6633C6.67566 20.9538 6.79092 21.2323 6.99609 21.4377C7.20126 21.6431 7.47953 21.7584 7.76968 21.7584H22.2358C22.5275 21.7581 22.8072 21.642 23.0135 21.4355C23.2197 21.229 23.3357 20.9491 23.3361 20.6571C23.3394 20.5142 23.314 20.3721 23.2613 20.2393C23.2087 20.1065 23.1298 19.9857 23.0294 19.8841C22.9291 19.7825 22.8093 19.7021 22.6772 19.6478C22.5452 19.5936 22.4036 19.5665 22.2608 19.5682ZM15.084 8.80475C14.1967 8.85793 13.3586 9.23062 12.7243 9.85401C12.0901 10.4774 11.7025 11.3094 11.6331 12.1965H11.6206V18.1289C11.6206 18.2916 11.5561 18.4475 11.4412 18.5626C11.3263 18.6776 11.1705 18.7422 11.008 18.7422C10.8455 18.7422 10.6897 18.6776 10.5748 18.5626C10.4599 18.4475 10.3953 18.2916 10.3953 18.1289V11.7835C10.392 11.7158 10.4005 11.648 10.4203 11.5832C10.5432 10.4746 11.0704 9.45025 11.901 8.7066C12.7316 7.96295 13.8071 7.55224 14.9215 7.55319H15.084C15.2498 7.55319 15.4088 7.61912 15.5261 7.73647C15.6433 7.85383 15.7092 8.013 15.7092 8.17897C15.7092 8.34494 15.6433 8.50411 15.5261 8.62146C15.4088 8.73882 15.2498 8.80475 15.084 8.80475ZM15.034 25C15.6089 25.0003 16.1606 24.7727 16.5683 24.3669C16.976 23.9612 17.2066 23.4103 17.2095 22.8348H12.871C12.8733 23.4083 13.1019 23.9577 13.507 24.3633C13.9122 24.7688 14.461 24.9977 15.034 25Z" fill="#333333"/>
</svg>
