<svg width="30" height="30" viewBox="0 0 30 30" fill="none" xmlns="http://www.w3.org/2000/svg">
<rect width="30" height="30" rx="15" fill="white"/>
<g clip-path="url(#clip0_5_130)">
<path d="M23.2254 22.9273C22.8272 23.7846 21.7641 23.8509 21.4474 23.8509H8.40693C8.18305 23.838 7.27574 23.7396 6.86399 22.9644C6.69018 22.6376 6.55349 22.0903 6.88874 21.3416C7.49962 19.9809 8.91487 19.8488 9.25293 19.8369C11.6621 19.464 12.4446 18.6349 12.4519 18.627L12.5081 18.5685C12.7652 18.3261 12.8529 17.9003 12.876 17.5301C11.3179 16.3449 10.3324 14.0561 10.3324 11.5406C10.3324 7.50919 12.8332 6.07932 14.9752 6.07932C17.1178 6.07932 19.6192 7.50975 19.6192 11.5406C19.6192 14.0561 18.6349 16.3444 17.0767 17.5296C17.1009 17.9008 17.1887 18.3278 17.4435 18.5685L17.5138 18.6439C17.5155 18.6439 18.3019 19.4668 20.6992 19.8375C21.2511 19.8594 22.2872 20.1598 22.9599 21.1723C23.4853 21.9632 23.3942 22.5639 23.2249 22.9273H23.2254Z" fill="#272636"/>
</g>
<defs>
<clipPath id="clip0_5_130">
<rect width="18" height="18" fill="white" transform="translate(6 6)"/>
</clipPath>
</defs>
</svg>
