<svg width="22" height="22" viewBox="0 0 22 22" fill="none" xmlns="http://www.w3.org/2000/svg">
<path d="M1.20175 5.6824C1.20175 5.6824 3.04719 2.83468 5.96729 1.30661C8.88737 -0.221393 12.485 0.218497 14.8444 1.7002C17.2038 3.18198 17.9981 4.43215 17.9981 4.43215L20.0304 3.27457C20.0304 3.27457 20.451 3.06624 20.451 3.55241V10.8223C20.451 10.8223 20.451 11.4706 19.9604 11.239C19.5476 11.0443 15.0843 8.50621 13.6778 7.70552C12.9054 7.36101 13.584 7.08114 13.584 7.08114L15.5452 5.96022C15.5452 5.96022 14.4265 4.55923 12.7892 3.81727C11.0366 2.90414 9.39579 2.79586 7.38594 3.55464C6.07533 4.04932 4.53231 5.31611 3.42091 7.18728L1.20175 5.6824ZM19.4231 15.2904C19.4231 15.2904 17.5777 18.1382 14.6575 19.6661C11.7374 21.1942 8.13989 20.7544 5.78046 19.2726C3.42093 17.7908 2.62675 16.5406 2.62675 16.5406L0.59433 17.6982C0.59433 17.6982 0.173828 17.9066 0.173828 17.4203V10.1505C0.173828 10.1505 0.173828 9.5023 0.664352 9.73377C1.07711 9.92858 5.54056 12.4665 6.94704 13.2673C7.71941 13.6118 7.04084 13.8916 7.04084 13.8916L5.07963 15.0126C5.07963 15.0126 6.19835 16.4135 7.83565 17.1555C9.5882 18.0686 11.2289 18.1769 13.2389 17.4181C14.5494 16.9234 16.0925 15.6568 17.2038 13.7855L19.4231 15.2904Z" fill="#272636"/>
</svg>
