<svg width="16" height="16" viewBox="0 0 16 16" fill="none" xmlns="http://www.w3.org/2000/svg">
<path d="M6.50492 0C7.39672 0 8.23606 0.157377 9.02295 0.52459C9.80984 0.891804 10.5443 1.31148 11.1213 1.94098C11.6984 2.51803 12.1705 3.2 12.5377 4.03934C12.9049 4.87869 13.0623 5.71803 13.0623 6.55738C13.0623 7.2918 12.9574 8.02623 12.6951 8.76066C12.4328 9.44262 12.118 10.0721 11.6459 10.6492L15.7902 14.741C15.9475 14.8984 16 15.0557 16 15.2656C16 15.4754 15.9475 15.6328 15.7902 15.7902C15.6328 15.9475 15.4754 16 15.2656 16C15.0557 16 14.8984 15.9475 14.741 15.7902L10.6492 11.6459C10.0721 12.118 9.44262 12.4328 8.76066 12.6951C8.07869 12.9574 7.34426 13.0623 6.55738 13.0623C5.66557 13.0623 4.82623 12.9049 4.03934 12.5377C3.25246 12.1705 2.51803 11.7508 1.94098 11.1213C1.36393 10.5443 0.891804 9.8623 0.52459 9.02295C0.157377 8.23607 0 7.34426 0 6.50492C0 5.61311 0.157377 4.77377 0.52459 3.98689C0.891804 3.2 1.31148 2.46557 1.94098 1.88852C2.57049 1.31148 3.2 0.839344 4.03934 0.472131C4.87869 0.104918 5.61311 0 6.50492 0ZM6.50492 1.46885C5.82295 1.46885 5.14098 1.62623 4.51148 1.88852C3.88197 2.15082 3.35738 2.51803 2.88525 2.99016C2.41312 3.46229 2.0459 3.98689 1.78361 4.61639C1.52131 5.2459 1.36393 5.87541 1.36393 6.60984C1.36393 7.34426 1.52131 7.97377 1.78361 8.60328C2.0459 9.23279 2.41312 9.75738 2.88525 10.2295C3.35738 10.7016 3.88197 11.0689 4.51148 11.3311C5.14098 11.5934 5.77049 11.7508 6.50492 11.7508C7.23934 11.7508 7.86885 11.5934 8.49836 11.3311C9.12787 11.0689 9.65246 10.7016 10.1246 10.2295C10.5967 9.75738 10.9639 9.23279 11.2262 8.60328C11.4885 7.97377 11.6459 7.34426 11.6459 6.60984C11.6459 5.87541 11.4885 5.2459 11.2262 4.61639C10.9639 3.98689 10.5967 3.46229 10.1246 2.99016C9.65246 2.51803 9.12787 2.15082 8.49836 1.88852C7.86885 1.57377 7.18688 1.46885 6.50492 1.46885Z" fill="#ACB3BF"/>
</svg>
