<svg width="22" height="22" viewBox="0 0 22 22" fill="none" xmlns="http://www.w3.org/2000/svg">
<path d="M20.1953 12.8047L18.5624 11.5672C18.5796 11.3953 18.5968 11.2063 18.5968 11C18.5968 10.7937 18.5796 10.6047 18.5624 10.4328L20.1953 9.19531C20.6421 8.85156 20.7624 8.25 20.4703 7.73438L18.6484 4.65781C18.4421 4.29688 18.0468 4.07344 17.6343 4.07344C17.4968 4.07344 17.3765 4.09063 17.239 4.14219L15.2968 4.89844C14.9703 4.675 14.6265 4.48594 14.2828 4.33125L13.9906 2.35469C13.9046 1.7875 13.4234 1.375 12.839 1.375H9.16088C8.57651 1.375 8.09526 1.7875 8.00932 2.3375L7.73432 4.33125C7.39057 4.48594 7.06401 4.675 6.72026 4.89844L4.77807 4.14219C4.64057 4.09063 4.50307 4.07344 4.36557 4.07344C3.95307 4.07344 3.55776 4.27969 3.36869 4.64062L1.52963 7.73438C1.23744 8.21562 1.35776 8.85156 1.80463 9.19531L3.43744 10.4328C3.42026 10.6391 3.40307 10.8281 3.40307 11C3.40307 11.1719 3.40307 11.3609 3.43744 11.5672L1.80463 12.8047C1.35776 13.1484 1.23744 13.75 1.52963 14.2656L3.35151 17.3422C3.55776 17.7031 3.95307 17.9266 4.36557 17.9266C4.50307 17.9266 4.62338 17.9094 4.76088 17.8578L6.70307 17.1016C7.02963 17.325 7.37338 17.5141 7.71713 17.6688L8.00932 19.6453C8.07807 20.1953 8.57651 20.625 9.16088 20.625H12.839C13.4234 20.625 13.9046 20.2125 13.9906 19.6625L14.2828 17.6688C14.6265 17.5141 14.9531 17.325 15.2968 17.1016L17.239 17.8578C17.3765 17.9094 17.514 17.9266 17.6515 17.9266C18.064 17.9266 18.4593 17.7203 18.6484 17.3594L20.4874 14.2484C20.7624 13.75 20.6421 13.1484 20.1953 12.8047ZM15.1249 11C15.1249 13.2688 13.2687 15.125 10.9999 15.125C8.73119 15.125 6.87494 13.2688 6.87494 11C6.87494 8.73125 8.73119 6.875 10.9999 6.875C13.2687 6.875 15.1249 8.73125 15.1249 11Z" fill="black"/>
</svg>
