<svg width="22" height="22" viewBox="0 0 22 22" fill="none" xmlns="http://www.w3.org/2000/svg">
<g clip-path="url(#clip0_199_609)">
<path d="M0.852478 11.2043C0.852478 12.2348 1.26183 13.223 1.99047 13.9517C2.71912 14.6803 3.70737 15.0897 4.73783 15.0897C5.7683 15.0897 6.75655 14.6803 7.4852 13.9517C8.21384 13.223 8.62319 12.2348 8.62319 11.2043C8.62319 10.1739 8.21384 9.18561 7.4852 8.45696C6.75655 7.72832 5.7683 7.31897 4.73783 7.31897C3.70737 7.31897 2.71912 7.72832 1.99047 8.45696C1.26183 9.18561 0.852478 10.1739 0.852478 11.2043Z" fill="black"/>
<path d="M13.1175 18.975C13.1175 19.7772 13.4362 20.5467 14.0035 21.1139C14.5708 21.6812 15.3402 22 16.1425 22C16.9448 22 17.7142 21.6812 18.2815 21.1139C18.8488 20.5467 19.1675 19.7772 19.1675 18.975C19.1675 18.1727 18.8488 17.4032 18.2815 16.836C17.7142 16.2687 16.9448 15.95 16.1425 15.95C15.3402 15.95 14.5708 16.2687 14.0035 16.836C13.4362 17.4032 13.1175 18.1727 13.1175 18.975Z" fill="black"/>
<path d="M15.1014 3.025C15.1014 3.82728 15.4201 4.5967 15.9874 5.164C16.5547 5.7313 17.3242 6.05 18.1264 6.05C18.9287 6.05 19.6981 5.7313 20.2654 5.164C20.8327 4.5967 21.1514 3.82728 21.1514 3.025C21.1514 2.22272 20.8327 1.4533 20.2654 0.886002C19.6981 0.318704 18.9287 0 18.1264 0C17.3242 0 16.5547 0.318704 15.9874 0.886002C15.4201 1.4533 15.1014 2.22272 15.1014 3.025Z" fill="black"/>
<path d="M6.06885 14.071L6.93313 12.5742L15.2821 17.3942L14.4178 18.8909L6.06885 14.071ZM6.30535 9.01648L15.7194 3.5813L16.5837 5.07808L7.16963 10.514L6.30535 9.01648Z" fill="black"/>
</g>
<defs>
<clipPath id="clip0_199_609">
<rect width="22" height="22" fill="white"/>
</clipPath>
</defs>
</svg>
