<svg width="24" height="24" viewBox="0 0 24 24" fill="none" xmlns="http://www.w3.org/2000/svg">
<path d="M12.6594 4.27076C12.8328 4.44418 12.9302 4.67936 12.9302 4.92458C12.9302 5.1698 12.8328 5.40497 12.6594 5.57839L6.23221 12.0056L12.6594 18.4328C12.8279 18.6072 12.9211 18.8408 12.919 19.0833C12.9169 19.3257 12.8196 19.5577 12.6481 19.7291C12.4767 19.9006 12.2447 19.9979 12.0023 20C11.7598 20.0021 11.5262 19.9089 11.3518 19.7404L4.27076 12.6594C4.09739 12.486 4 12.2508 4 12.0056C4 11.7604 4.09739 11.5252 4.27076 11.3518L11.3518 4.27076C11.5252 4.09739 11.7604 4 12.0056 4C12.2508 4 12.486 4.09739 12.6594 4.27076Z" fill="white"/>
</svg>
