<svg width="20" height="20" viewBox="0 0 20 20" fill="none" xmlns="http://www.w3.org/2000/svg">
<path d="M14.1943 2.27076C14.3677 2.44418 14.4651 2.67936 14.4651 2.92458C14.4651 3.1698 14.3677 3.40497 14.1943 3.57839L7.76712 10.0056L14.1943 16.4328C14.3628 16.6072 14.456 16.8408 14.4539 17.0833C14.4518 17.3257 14.3545 17.5577 14.183 17.7291C14.0116 17.9006 13.7796 17.9979 13.5372 18C13.2947 18.0021 13.0611 17.9089 12.8867 17.7404L5.80567 10.6594C5.63231 10.486 5.53491 10.2508 5.53491 10.0056C5.53491 9.76037 5.63231 9.52519 5.80567 9.35177L12.8867 2.27076C13.0601 2.09739 13.2953 2 13.5405 2C13.7857 2 14.0209 2.09739 14.1943 2.27076Z" fill="#2F4447"/>
</svg>
