<svg width="22" height="22" viewBox="0 0 22 22" fill="none" xmlns="http://www.w3.org/2000/svg">
<path d="M13.7378 21.9627C13.7378 20.8715 13.7411 19.4077 13.7368 18.3809C13.733 17.547 13.5608 17.3671 12.7551 17.3635C11.5571 17.3585 10.3591 17.359 9.16104 17.3633C8.33993 17.3662 8.18379 17.5143 8.17074 18.3707C8.1549 19.3961 8.16691 20.8592 8.16691 21.9314C7.94025 21.958 7.78171 21.992 7.62293 21.9928C6.53715 21.9974 5.45123 22.0065 4.36557 21.992C3.07712 21.9748 2.77288 21.6471 2.782 20.3632C2.79004 19.2026 2.77217 14.2635 2.80346 13.1035C2.80981 12.8724 2.92902 12.5829 3.09391 12.4269C5.25901 10.3792 7.43824 8.347 9.62155 6.31933C10.4925 5.51056 11.5204 5.50094 12.3927 6.31811C14.5814 8.3681 16.7577 10.4319 18.9243 12.5058C19.0768 12.6516 19.1829 12.9244 19.1873 13.1406C19.193 13.421 19.2169 18.4188 19.196 20.5737C19.188 21.3796 18.7973 21.9191 18.0646 21.947C16.6478 22.0009 15.2278 21.9627 13.7378 21.9627Z" fill="black"/>
<path d="M10.7456 9.8972e-06C11.8126 -0.00217571 12.3684 0.357859 12.8675 0.849499C14.7906 2.74316 16.7171 4.63363 18.6413 6.52616C19.5295 7.39978 20.4154 8.27587 21.3018 9.15147C21.3957 9.24439 21.489 9.33868 21.5757 9.43856C22.0689 10.0068 22.1353 10.6166 21.7583 11.0941C21.3609 11.5974 20.5645 11.7152 19.9716 11.3454C19.814 11.2469 19.6718 11.1184 19.5365 10.9885C17.3461 8.88263 15.156 6.77666 12.97 4.66594C11.3518 3.10344 10.7322 3.09073 9.09749 4.63531C6.91694 6.69579 4.75377 8.77544 2.55607 10.8168C2.24606 11.1049 1.8021 11.3028 1.38777 11.4006C0.843917 11.5289 0.394803 11.2479 0.141403 10.7381C-0.113071 10.2262 -0.0118523 9.73166 0.346972 9.30574C0.552878 9.0612 0.795717 8.84801 1.02787 8.62726C3.72206 6.06549 6.42009 3.50847 9.10971 0.941701C9.67382 0.403476 10.2884 0.00722246 10.7456 9.8972e-06Z" fill="black"/>
</svg>
