<svg width="22" height="22" viewBox="0 0 22 22" fill="none" xmlns="http://www.w3.org/2000/svg">
<path d="M5.62036 5.40244C5.62036 8.3865 8.07565 10.8049 11.1053 10.8049C14.1349 10.8049 16.5902 8.3865 16.5902 5.40244C16.5902 2.41838 14.1349 1.88882e-06 11.1053 1.88882e-06C8.07565 -0.00246836 5.62036 2.41838 5.62036 5.40244Z" fill="black"/>
<path d="M21.6187 15.943C21.245 13.1689 19.2913 10.6295 16.7256 10.2417H15.5945C14.644 11.7658 12.9487 12.791 10.9975 12.791C9.04626 12.791 7.35088 11.7658 6.39786 10.2417H5.2768C3.01713 10.6295 0.780027 13.0405 0.406341 15.8171C0.35869 16.0542 -0.00496452 18.7641 5.14004e-05 18.8826C0.0176071 20.0214 0.707296 20.9972 1.68038 21.5382C2.18448 21.8247 2.75881 22.0001 3.36072 22.0001H18.6392C19.2411 22.0001 19.8154 21.8222 20.3195 21.5382C21.2926 20.9947 21.9848 20.019 21.9999 18.8826C22.0074 18.7616 21.6663 16.1777 21.6187 15.943Z" fill="black"/>
</svg>
