<svg width="22" height="22" viewBox="0 0 22 22" fill="none" xmlns="http://www.w3.org/2000/svg">
<rect width="22" height="22" rx="11" fill="#18A0FB" fill-opacity="0.2"/>
<g clip-path="url(#clip0_199_824)">
<path d="M11 3.48487C14.9201 3.48487 18.1401 6.70494 18.1401 10.625C18.1401 14.5451 14.9201 17.7651 11 17.7651C7.0799 17.7651 3.85987 14.5451 3.85987 10.625C3.85987 6.7049 7.07994 3.48487 11 3.48487ZM11 2.71484C6.62491 2.71484 3.08984 6.24991 3.08984 10.625C3.08984 15.0001 6.62491 18.5352 11 18.5352C15.3751 18.5352 18.9102 15.0001 18.9102 10.625C18.9102 6.24991 15.3751 2.71484 11 2.71484ZM11.56 13.2501C11.245 13.5651 10.825 13.8451 10.685 13.9501C10.755 13.5651 11.105 12.69 11.56 11.185C12.015 9.64502 12.05 9.4 12.05 9.26001C12.05 9.05 11.98 8.83999 11.805 8.7C11.42 8.385 10.79 8.455 9.985 8.91001C9.56499 9.15501 9.11 9.54003 8.58499 10.135L8.30499 10.415L9.21503 11.115L9.42504 10.87C9.67004 10.66 10.23 10.17 10.3351 10.065C9.63506 12.3401 8.93506 14.0551 8.93506 14.6851C8.93506 14.9651 9.04006 15.2101 9.18007 15.3851C9.35506 15.5601 9.60008 15.6651 9.88008 15.6651C10.1251 15.6651 10.4401 15.5601 10.8251 15.3501C11.1401 15.1401 11.6301 14.7551 12.3301 14.0901L12.6101 13.8101L11.8051 13.0051L11.5601 13.2501L11.56 13.2501ZM10.86 5.8299C10.685 6.0399 10.58 6.31992 10.58 6.63491C10.58 6.91491 10.65 7.12493 10.825 7.29992C11 7.47491 11.21 7.57992 11.455 7.57992C11.665 7.57992 11.945 7.50993 12.225 7.19493C12.435 6.98492 12.54 6.7049 12.54 6.38992C12.54 6.14492 12.47 5.89989 12.295 5.7249C11.945 5.37489 11.28 5.4099 10.86 5.8299H10.86Z" fill="#18A0FB"/>
</g>
<defs>
<clipPath id="clip0_199_824">
<rect width="18" height="18" fill="white" transform="translate(2 2)"/>
</clipPath>
</defs>
</svg>
