<svg width="22" height="22" viewBox="0 0 22 22" fill="none" xmlns="http://www.w3.org/2000/svg">
<rect width="22" height="22" rx="11" fill="#5865F2" fill-opacity="0.2"/>
<path d="M5.32803 11.632H6.07203C6.28003 11.632 6.44803 11.448 6.44803 11.224V10.672C6.44803 10.448 6.28003 10.264 6.07203 10.264H5.32803C5.12003 10.264 4.95203 10.448 4.95203 10.672V11.224C4.96003 11.448 5.12003 11.632 5.32803 11.632ZM5.32803 8.064H6.07203C6.28003 8.064 6.44803 7.88 6.44803 7.656V7.104C6.44803 6.88 6.28003 6.696 6.07203 6.696H5.32803C5.12003 6.696 4.95203 6.88 4.95203 7.112V7.664C4.96003 7.88 5.12003 8.064 5.32803 8.064Z" fill="#5865F2"/>
<path d="M16.84 6.464H7.23201C6.97601 6.464 6.77601 6.256 6.77601 6.008C6.77601 5.76 6.98401 5.552 7.23201 5.552H16.8V5.152C16.8 5.04 16.712 4.952 16.6 4.952H6.07201C5.96001 4.952 5.87201 5.04 5.87201 5.152V6.216C5.87201 6.328 5.96001 6.416 6.07201 6.416H6.20001C6.50401 6.416 6.74401 6.664 6.74401 6.968V7.792C6.74401 8.096 6.50401 8.344 6.20001 8.344H6.07201C5.96001 8.344 5.87201 8.432 5.87201 8.544V9.784C5.87201 9.896 5.96001 9.984 6.07201 9.984H6.20001C6.50401 9.984 6.74401 10.232 6.74401 10.536V11.36C6.74401 11.664 6.50401 11.912 6.20001 11.912H6.07201C5.96001 11.912 5.87201 12 5.87201 12.112V13.352C5.87201 13.464 5.96001 13.552 6.07201 13.552H6.20001C6.50401 13.552 6.74401 13.8 6.74401 14.104V14.928C6.74401 15.232 6.50401 15.48 6.20001 15.48H6.07201C5.96001 15.48 5.87201 15.568 5.87201 15.68V16.832C5.87201 16.944 5.96001 17.032 6.07201 17.032H16.84C16.952 17.032 17.04 16.944 17.04 16.832V6.672C17.04 6.56 16.952 6.464 16.84 6.464ZM14.144 13.808H9.17601C9.11201 13.808 9.08001 13.76 9.09601 13.712C9.09601 13.128 9.44801 13.016 10.016 12.904C10.68 12.744 11 12.352 11.048 12.288C11.096 12.208 11.096 12.096 11.096 12C11.096 11.952 11.08 11.904 11.064 11.856L11.048 11.824C11.032 11.776 10.936 11.616 10.888 11.488C10.888 11.456 10.856 11.392 10.824 11.36C10.776 11.328 10.68 11.28 10.616 11.152C10.472 10.928 10.52 10.728 10.664 10.6V10.568C10.568 10.36 10.536 10.112 10.552 9.792C10.568 9.456 10.904 8.968 11.68 8.968C12.456 8.968 12.76 9.472 12.776 9.776C12.792 10.096 12.728 10.36 12.68 10.552V10.584C12.792 10.664 12.888 10.888 12.728 11.12C12.632 11.232 12.568 11.296 12.52 11.328C12.488 11.392 12.456 11.44 12.456 11.456C12.392 11.568 12.312 11.76 12.296 11.792L12.28 11.824C12.264 11.872 12.248 11.936 12.248 11.968C12.248 12.08 12.248 12.192 12.296 12.256C12.36 12.352 12.688 12.712 13.328 12.872C13.912 13.016 14.248 13.112 14.232 13.712C14.24 13.776 14.176 13.808 14.144 13.808Z" fill="#5865F2"/>
<path d="M6.44803 14.792V14.24C6.44803 14.016 6.28003 13.832 6.07203 13.832H5.32803C5.12003 13.832 4.95203 14.016 4.95203 14.24V14.792C4.95203 15.016 5.12003 15.2 5.32803 15.2H6.07203C6.28003 15.2 6.44803 15.016 6.44803 14.792Z" fill="#5865F2"/>
</svg>
