<svg width="22" height="22" viewBox="0 0 22 22" fill="none" xmlns="http://www.w3.org/2000/svg">
<rect width="22" height="22" rx="11" fill="#51D16B" fill-opacity="0.2"/>
<g clip-path="url(#clip0_5_488)">
<path d="M11 4.23022V4.23411C14.85 4.23411 18 6.80272 18 9.96634C18 13.1299 14.85 15.6986 11 15.6986C10.8611 15.7038 10.7245 15.7354 10.5975 15.7919C9.8415 16.0859 8.5885 17.0138 7.71 17.7091C7.61063 17.7897 7.48787 17.8361 7.36 17.8413C7.27824 17.8398 7.19762 17.8219 7.12288 17.7887C7.04814 17.7555 6.98081 17.7077 6.92483 17.6481C6.81027 17.526 6.7479 17.364 6.751 17.1966C6.751 16.0287 6.6845 14.4949 6.3345 14.2371C4.8995 13.1871 4 11.6611 4 9.96284C4 6.79572 7.15 4.23061 11 4.23061V4.23022ZM13.275 8.5045H8.725C8.43489 8.5045 8.2 8.74522 8.2 9.04195C8.2 9.33867 8.43489 9.57939 8.725 9.57939H13.275C13.5651 9.57939 13.8 9.33867 13.8 9.04195C13.8 8.74522 13.5651 8.5045 13.275 8.5045ZM12.575 11.0128H9.425C9.13489 11.0128 8.9 11.2532 8.9 11.5499C8.9 11.847 9.13489 12.0873 9.425 12.0873H12.575C12.8651 12.0873 13.1 11.847 13.1 11.5499C13.1 11.2532 12.8651 11.0124 12.575 11.0124V11.0128Z" fill="#51D16B"/>
</g>
<defs>
<clipPath id="clip0_5_488">
<rect width="14" height="14" fill="white" transform="translate(4 4)"/>
</clipPath>
</defs>
</svg>
