<svg width="22" height="22" viewBox="0 0 22 22" fill="none" xmlns="http://www.w3.org/2000/svg">
<rect width="22" height="22" rx="11" fill="#FF9D24" fill-opacity="0.2"/>
<path d="M13.9524 17.958C11.7173 17.958 9.90486 16.1327 9.90486 13.8811C9.90486 11.63 11.7173 9.80476 13.9524 9.80476C16.1882 9.80476 18 11.63 18 13.8811C18 16.1327 16.1882 17.958 13.9524 17.958ZM16.1415 11.6767L13.9524 12.3224L11.7639 11.6767L12.4048 13.8811L11.7639 16.0855L13.9524 15.4403L16.1415 16.0855L15.5001 13.8811L16.1415 11.6767ZM9.84655 11.4818C9.26808 11.7426 8.5928 11.8931 7.87088 11.8948C5.73309 11.9007 4 10.5993 4 8.98926C4 8.75242 4.03849 8.52201 4.10905 8.30151C4.51958 9.57901 6.0474 10.5252 7.87088 10.5199C9.69493 10.5153 11.2233 9.56092 11.6333 8.28168C11.7044 8.50159 11.7429 8.73201 11.7429 8.96884C11.7429 9.22259 11.6998 9.46817 11.6187 9.70326C10.8845 10.1291 10.2717 10.7439 9.84655 11.4818ZM7.87088 9.83276C5.73309 9.83801 4 8.53718 4 6.9266C4 5.31602 5.73309 4.00585 7.87088 4.00002C10.0092 3.99419 11.7429 5.2956 11.7429 6.90618C11.7429 8.51676 10.0092 9.82692 7.87088 9.83276ZM9.69027 5.5336L7.83472 5.89935L5.97976 5.5336L6.25616 6.78251L5.60188 8.03201L7.83472 7.66626L10.0681 8.03201L9.41386 6.78251L9.69027 5.5336ZM7.87088 12.5872C8.43827 12.5855 8.97709 12.4922 9.46226 12.3253C9.30481 12.7838 9.21268 13.2732 9.19927 13.7825C8.78466 13.8974 8.33739 13.9604 7.87088 13.9622C5.73309 13.9674 4 12.666 4 11.056C4 10.8192 4.03849 10.5888 4.10905 10.3683C4.51958 11.6458 6.0474 12.5919 7.87088 12.5872ZM4 13.0953C4 12.8585 4.03849 12.6287 4.10905 12.4076C4.51958 13.6851 6.0474 14.6312 7.87088 14.6266C8.3473 14.6254 8.80332 14.5589 9.22493 14.4393C9.27216 14.885 9.37887 15.3126 9.53749 15.7139C9.03307 15.8965 8.46801 15.9997 7.87088 16.0015C5.73309 16.0073 4 14.7059 4 13.0953ZM7.87088 16.6251C8.56656 16.6233 9.21909 16.4827 9.78299 16.2395C9.97659 16.5982 10.2145 16.929 10.488 17.2253C9.79932 17.7037 8.88029 17.9971 7.87088 18C5.73309 18.0052 4 16.7044 4 15.0938C4 14.857 4.03849 14.6266 4.10905 14.4061C4.51958 15.6836 6.0474 16.6297 7.87088 16.6251Z" fill="#FF9D24"/>
</svg>
