<svg width="22" height="22" viewBox="0 0 22 22" fill="none" xmlns="http://www.w3.org/2000/svg">
<rect width="22" height="22" rx="11" fill="#FB4226" fill-opacity="0.2"/>
<path d="M13.6666 4.57143C14.0076 4.57143 14.3346 4.70688 14.5757 4.948C14.8169 5.18912 14.9523 5.51615 14.9523 5.85714L14.9519 6.73314H16.2607C16.4296 6.73314 16.5968 6.7664 16.7528 6.83101C16.9088 6.89562 17.0505 6.99033 17.1699 7.10972C17.2893 7.22911 17.384 7.37084 17.4486 7.52683C17.5132 7.68282 17.5465 7.85001 17.5465 8.01885L17.546 10.1921H11.4933V13.6511H17.546V15.8244C17.546 16.1654 17.4106 16.4924 17.1694 16.7336C16.9283 16.9747 16.6013 17.1101 16.2603 17.1101H5.4286C5.08761 17.1101 4.76058 16.9747 4.51946 16.7336C4.27834 16.4924 4.14288 16.1654 4.14288 15.8244V6.71428C4.14288 6.14596 4.36865 5.60092 4.77051 5.19905C5.17238 4.79719 5.71742 4.57143 6.28574 4.57143H13.6666ZM17.4933 11.4779V12.3654H12.779V11.4783H17.4933V11.4779ZM13.6657 5.85714H6.28574C6.05841 5.85714 5.84039 5.94745 5.67965 6.10819C5.5189 6.26894 5.4286 6.48696 5.4286 6.71428L5.42817 6.73314H13.6662V5.85714H13.6657Z" fill="#FB4226"/>
</svg>
