<svg width="16" height="16" viewBox="0 0 16 16" fill="none" xmlns="http://www.w3.org/2000/svg">
<g clip-path="url(#clip0_199_895)">
<path d="M8.00156 0C3.58368 0 0.00312519 3.58055 0.00312519 7.99844C0.00312519 12.4163 3.58368 15.9969 8.00156 15.9969C12.4194 15.9969 16 12.4163 16 7.99844C16 3.58055 12.4179 0 8.00156 0Z" fill="black"/>
<path d="M8 2.03088V5.4271L4.33666 7.49857L8 2.03088ZM8 13.9661L4.33666 8.40464L8 10.4714V13.9661ZM8 2.03088V5.4271L11.6665 7.49857L8 2.03088ZM8 10.4714V13.9661L11.6665 8.40464L8 10.4714ZM8 5.97074L4.48506 7.95941L8 9.84811V5.97074ZM8 5.97074L11.5165 7.95941L8 9.84811V5.97074Z" fill="white"/>
</g>
<defs>
<clipPath id="clip0_199_895">
<rect width="16" height="16" fill="white" transform="matrix(-1 0 0 1 16 0)"/>
</clipPath>
</defs>
</svg>
