<svg width="22" height="22" viewBox="0 0 22 22" fill="none" xmlns="http://www.w3.org/2000/svg">
<rect width="22" height="22" rx="11" fill="#5865F2" fill-opacity="0.2"/>
<g clip-path="url(#clip0_5_508)">
<path d="M18.0002 17.1235C18.0002 17.1235 17.9987 17.0027 17.9801 16.8135L17.0121 17.7813H17.3438C17.5178 17.7813 17.6847 17.7121 17.8078 17.5891C17.9309 17.466 18 17.2991 18 17.125L17.9998 17.1235H18.0002ZM14.5223 16.9063H12.75C12.5776 16.9063 12.407 16.8723 12.2477 16.8064C12.0885 16.7404 11.9438 16.6437 11.8219 16.5218C11.7 16.4 11.6034 16.2553 11.5374 16.096C11.4714 15.9368 11.4375 15.7661 11.4375 15.5938C11.4375 15.4214 11.4714 15.2507 11.5374 15.0915C11.6034 14.9323 11.7 14.7876 11.8219 14.6657C11.9438 14.5438 12.0885 14.4471 12.2477 14.3812C12.407 14.3152 12.5776 14.2813 12.75 14.2813H14.5223C14.5087 14.2091 14.5012 14.1359 14.5 14.0625C14.5 13.8031 14.5777 13.5633 14.7072 13.3599C14.5416 13.3015 14.3776 13.2384 14.2156 13.1707C12.8583 12.6087 12.5367 12.425 12.5367 12.425L12.5247 11.1359C12.5247 11.1359 13.0331 10.75 13.1917 9.5309C13.5091 9.62277 13.6165 9.1588 13.6338 8.8624C13.6526 8.57605 13.8214 7.68355 13.4332 7.76318C13.5126 7.1673 13.5749 6.62852 13.5469 6.34327C13.45 5.34227 12.7577 4.29686 11.0105 4.22052C9.52519 4.29686 8.56094 5.34293 8.46359 6.34415C8.43559 6.6294 8.49269 7.16752 8.57209 7.76449C8.18403 7.68377 8.35116 8.57802 8.36822 8.86415C8.38703 9.16055 8.49203 9.62583 8.81009 9.53396C8.96803 10.7533 9.47641 11.1424 9.47641 11.1424L9.46372 12.4383C9.46372 12.4383 9.14216 12.6343 7.78481 13.1965C6.42747 13.7596 6.85316 13.3131 5.74738 13.863C4 14.7323 4 17.1237 4 17.1237H4.00044C4.00026 17.21 4.0171 17.2954 4.04997 17.3751C4.08285 17.4549 4.13112 17.5274 4.19203 17.5884C4.25294 17.6495 4.32529 17.698 4.40494 17.7311C4.4846 17.7642 4.57 17.7812 4.65625 17.7813H14.682C14.5639 17.5826 14.5011 17.3561 14.5 17.125C14.5 17.05 14.5101 16.9778 14.5223 16.9063ZM18 15.5938C18.0001 15.5076 17.9832 15.4222 17.9502 15.3426C17.9172 15.263 17.8688 15.1907 17.8077 15.1298L16.2765 13.5986C16.2159 13.5359 16.1435 13.4859 16.0635 13.4515C15.9834 13.4171 15.8973 13.399 15.8101 13.3982C15.723 13.3975 15.6366 13.4141 15.5559 13.4471C15.4753 13.4801 15.402 13.5288 15.3404 13.5904C15.2788 13.652 15.2301 13.7253 15.1971 13.806C15.1641 13.8866 15.1475 13.973 15.1482 14.0602C15.149 14.1473 15.1671 14.2334 15.2015 14.3135C15.2359 14.3935 15.2859 14.466 15.3485 14.5265L15.7593 14.9375H12.75C12.576 14.9375 12.409 15.0067 12.286 15.1297C12.1629 15.2528 12.0938 15.4197 12.0938 15.5938C12.0938 15.7678 12.1629 15.9347 12.286 16.0578C12.409 16.1809 12.576 16.25 12.75 16.25H15.7593L15.3483 16.6611C15.2269 16.7845 15.1592 16.9509 15.1599 17.124C15.1607 17.2971 15.2298 17.4629 15.3522 17.5853C15.4746 17.7077 15.6405 17.7768 15.8136 17.7775C15.9867 17.7782 16.1531 17.7104 16.2765 17.589L17.8077 16.0577C17.8688 15.9969 17.9172 15.9246 17.9502 15.845C17.9832 15.7653 18.0001 15.68 18 15.5938Z" fill="#6F52FF"/>
</g>
<defs>
<clipPath id="clip0_5_508">
<rect width="14" height="14" fill="white" transform="translate(4 4)"/>
</clipPath>
</defs>
</svg>
