<svg width="22" height="22" viewBox="0 0 22 22" fill="none" xmlns="http://www.w3.org/2000/svg">
<rect width="22" height="22" rx="11" fill="#3E74FF" fill-opacity="0.2"/>
<g clip-path="url(#clip0_5_396)">
<path d="M18 8.81253C18 11.4704 15.8454 13.625 13.1875 13.625C12.8807 13.625 12.5807 13.596 12.2899 13.5411L11.6333 14.2797C11.5717 14.349 11.4962 14.4045 11.4117 14.4424C11.3271 14.4804 11.2355 14.5 11.1428 14.5H10.125V15.5938C10.125 15.9562 9.83119 16.25 9.46875 16.25H8.375V17.3438C8.375 17.7062 8.08119 18 7.71875 18H4.65625C4.29381 18 4 17.7062 4 17.3438V15.2093C4 15.0353 4.06915 14.8683 4.1922 14.7453L8.61647 10.321C8.45998 9.84648 8.375 9.33944 8.375 8.8125C8.375 6.15463 10.5296 4.00003 13.1875 4C15.8532 3.99997 18 6.14679 18 8.81253ZM13.1875 7.5C13.1875 8.22488 13.7751 8.8125 14.5 8.8125C15.2249 8.8125 15.8125 8.22488 15.8125 7.5C15.8125 6.77512 15.2249 6.1875 14.5 6.1875C13.7751 6.1875 13.1875 6.77512 13.1875 7.5Z" fill="#3E74FF"/>
</g>
<defs>
<clipPath id="clip0_5_396">
<rect width="14" height="14" fill="white" transform="translate(4 4)"/>
</clipPath>
</defs>
</svg>
