<svg width="22" height="22" viewBox="0 0 22 22" fill="none" xmlns="http://www.w3.org/2000/svg">
<rect width="22" height="22" rx="11" fill="#4AE5BC" fill-opacity="0.2"/>
<path d="M3 8C3 7.17266 3.7175 6.5 4.6 6.5H17.4C18.2825 6.5 19 7.17266 19 8V14C19 14.8273 18.2825 15.5 17.4 15.5H4.6C3.7175 15.5 3 14.8273 3 14V8ZM11 8V14H17.4V8H11ZM7.4575 9.12266C7.3775 8.95391 7.1975 8.84375 7 8.84375C6.8025 8.84375 6.6225 8.95391 6.5425 9.12266L4.9425 12.4977C4.83 12.7344 4.945 13.0109 5.1975 13.1164C5.45 13.2219 5.745 13.1141 5.8575 12.8773L6.08 12.4062H7.92L8.1425 12.8773C8.255 13.1141 8.55 13.2195 8.8025 13.1164C9.055 13.0133 9.1675 12.7344 9.0575 12.4977L7.4575 9.12266ZM7 10.4656L7.475 11.4688H6.525L7 10.4656ZM14.2 8.84375C14.475 8.84375 14.7 9.05469 14.7 9.3125V9.40625H16.2C16.475 9.40625 16.7 9.61719 16.7 9.875C16.7 10.1328 16.475 10.3438 16.2 10.3438H16.15L16.11 10.4492C15.8875 11.0211 15.55 11.5414 15.12 11.982C15.1425 11.9961 15.165 12.0078 15.1875 12.0195L15.66 12.2844C15.8975 12.418 15.9725 12.7063 15.8325 12.9266C15.6925 13.1469 15.3825 13.2195 15.1475 13.0883L14.675 12.8234C14.5625 12.7602 14.455 12.6945 14.3475 12.6242C14.0825 12.8 13.8 12.9523 13.4975 13.0789L13.4075 13.1164C13.155 13.2219 12.86 13.1141 12.7475 12.8773C12.635 12.6406 12.75 12.3641 13.0025 12.2586L13.0925 12.2211C13.2525 12.1531 13.4075 12.0781 13.555 11.9914L13.25 11.7055C13.055 11.5227 13.055 11.225 13.25 11.0422C13.445 10.8594 13.7625 10.8594 13.9575 11.0422L14.3225 11.3844L14.335 11.3961C14.645 11.0891 14.8975 10.7328 15.08 10.3414H12.4C12.125 10.3414 11.9 10.1305 11.9 9.87266C11.9 9.61484 12.125 9.40391 12.4 9.40391H13.7V9.31016C13.7 9.05234 13.925 8.84141 14.2 8.84141V8.84375Z" fill="#4AE5BC"/>
</svg>
