<svg width="22" height="22" viewBox="0 0 22 22" fill="none" xmlns="http://www.w3.org/2000/svg">
<rect width="22" height="22" rx="11" fill="#2381FD" fill-opacity="0.2"/>
<g clip-path="url(#clip0_5_478)">
<path d="M15.3853 7.60592C14.995 7.81883 14.565 8.00185 14.1055 8.15279C14.3407 9.02943 14.4749 9.99603 14.4968 10.9996H17.4103C17.3525 9.62116 16.8689 8.29447 16.0262 7.20205C15.8217 7.35055 15.6075 7.48547 15.3853 7.60592ZM11 11.5833H13.9133C13.8919 12.5313 13.7659 13.4427 13.5462 14.2659C12.7553 14.0597 11.8929 13.9414 11 13.9202V11.5833ZM15.3853 14.9774C14.995 14.7645 14.565 14.5815 14.1055 14.4306C14.3407 13.5539 14.4749 12.5873 14.4968 11.5837H17.4103C17.3525 12.9623 16.869 14.2891 16.0262 15.3817C15.8217 15.233 15.6076 15.098 15.3853 14.9774ZM10.4167 4.90235V8.07969C9.58049 8.059 8.7753 7.94926 8.03839 7.75904C8.16149 7.38932 8.31316 7.02973 8.49202 6.68352C9.02787 5.65603 9.70244 5.03551 10.4167 4.90235ZM11 11V8.66312C11.8932 8.64197 12.7553 8.52366 13.5462 8.31749C13.7659 9.14063 13.8919 10.0521 13.9133 11H11ZM7.8705 8.31749C8.66137 8.52366 9.52343 8.64197 10.4167 8.66312V11H7.50336C7.52478 10.0521 7.65075 9.14063 7.8705 8.31749ZM11 17.681V14.5037C11.8362 14.5243 12.6413 14.6341 13.3783 14.8243C13.2552 15.1942 13.1035 15.5539 12.9246 15.9003C12.3888 16.9273 11.7142 17.5478 11 17.681ZM12.9246 6.68306C13.1035 7.02942 13.2552 7.38916 13.3783 7.75904C12.6413 7.94926 11.8362 8.059 11 8.07969V4.90235C11.7142 5.03551 12.3888 5.65603 12.9246 6.68306ZM6.03136 7.60592C6.42165 7.81883 6.85167 8.00185 7.31114 8.15279C7.07598 9.02943 6.94172 9.99603 6.91985 10.9996H4.00637C4.06412 9.62104 4.54764 8.2942 5.39042 7.20168C5.59499 7.35031 5.8091 7.48535 6.03136 7.60592ZM15.1059 7.09386C14.7505 7.28791 14.3581 7.45534 13.9379 7.59461C13.7972 7.17261 13.6313 6.77658 13.4418 6.41327C13.1018 5.76158 12.7023 5.24706 12.2543 4.88412C12.1777 4.82184 12.1001 4.76444 12.0216 4.71194C13.4446 4.9945 14.7055 5.72685 15.6498 6.75489C15.4755 6.87876 15.2939 6.99195 15.1059 7.09386ZM12.2543 17.6992C12.7023 17.3361 13.102 16.8216 13.4418 16.1699C13.6313 15.8067 13.7973 15.4106 13.9379 14.9885C14.3581 15.1278 14.7502 15.2953 15.1059 15.4893C15.2939 15.5912 15.4755 15.7044 15.6498 15.8283C14.7055 16.8563 13.4446 17.5888 12.0216 17.8712C12.1001 17.8188 12.1777 17.7615 12.2543 17.6992ZM6.31072 15.4893C6.66619 15.2953 7.05812 15.1278 7.47875 14.9885C7.61948 15.4106 7.78537 15.8067 7.97486 16.1699C8.31484 16.8216 8.71433 17.3366 9.16231 17.6992C9.23905 17.7614 9.31665 17.8187 9.3951 17.8712C7.97204 17.5887 6.71113 16.8563 5.76686 15.8283C5.94114 15.7045 6.12276 15.5913 6.31072 15.4895V15.4893ZM8.49202 15.9001C8.31314 15.5537 8.16147 15.194 8.03839 14.8241C8.7753 14.6339 9.58049 14.5242 10.4167 14.5035V17.681C9.70244 17.5478 9.02787 16.9273 8.49202 15.9003V15.9001ZM10.4167 11.5833V13.9202C9.52343 13.9414 8.66137 14.0597 7.8705 14.2659C7.65075 13.4423 7.52478 12.5317 7.50336 11.5833H10.4167ZM9.16231 4.88412C8.71433 5.24724 8.31465 5.76176 7.97486 6.41346C7.78537 6.77676 7.61939 7.17279 7.47875 7.5948C7.05857 7.45553 6.66646 7.28809 6.31072 7.09404C6.12275 6.99214 5.94113 6.87894 5.76686 6.75507C6.71113 5.72685 7.97204 4.99441 9.3951 4.71194C9.31659 4.76444 9.23899 4.82184 9.16231 4.88412ZM5.39042 15.3815C4.54761 14.2889 4.06408 12.962 4.00637 11.5833H6.91985C6.94172 12.5869 7.07598 13.5535 7.31114 14.4302C6.85131 14.5815 6.42165 14.7645 6.03136 14.9771C5.8091 15.0976 5.59499 15.2327 5.39042 15.3813V15.3815Z" fill="#2381FD"/>
</g>
<defs>
<clipPath id="clip0_5_478">
<rect width="14" height="14" fill="white" transform="matrix(-1 0 0 1 18 4)"/>
</clipPath>
</defs>
</svg>
