<svg width="22" height="22" viewBox="0 0 22 22" fill="none" xmlns="http://www.w3.org/2000/svg">
<rect width="22" height="22" rx="11" fill="#FF9D24" fill-opacity="0.2"/>
<g clip-path="url(#clip0_5_421)">
<path d="M10.0402 4.48261C10.3395 4.30978 10.679 4.21878 11.0246 4.21878C11.3702 4.21878 11.7097 4.30978 12.009 4.48261L16.1898 6.8957C16.4891 7.06881 16.7376 7.31759 16.9104 7.61707C17.0832 7.91655 17.1742 8.2562 17.1742 8.60195V13.4309C17.1742 14.1336 16.7996 14.7844 16.1898 15.1344L12.009 17.5488C11.7099 17.7221 11.3703 17.8134 11.0246 17.8134C10.6789 17.8134 10.3394 17.7221 10.0402 17.5488L5.85938 15.1344C5.25016 14.7844 4.875 14.1336 4.875 13.4309V8.60195C4.875 7.89922 5.25016 7.24844 5.85938 6.8957L10.0402 4.48261ZM7.49453 8.66484C7.41523 8.4707 7.21016 8.35859 7.00508 8.39961C6.8 8.43789 6.65016 8.61836 6.65016 8.8289V13.2039C6.65016 13.4445 6.84648 13.6414 7.08711 13.6414C7.33047 13.6414 7.52461 13.4445 7.52461 13.2039V11.1012L8.43242 13.3652C8.50898 13.5594 8.71406 13.6715 8.91914 13.6332C9.12695 13.5922 9.27461 13.4117 9.27461 13.2039V8.8289C9.27461 8.58554 9.08047 8.3914 8.83711 8.3914C8.59648 8.3914 8.39961 8.58554 8.39961 8.8289V10.9316L7.49453 8.66484ZM10.1496 13.2039C10.1496 13.4445 10.3465 13.6414 10.5871 13.6414C10.8305 13.6414 11.0246 13.4445 11.0246 13.2039V11.4539H11.8996C12.143 11.4539 12.3371 11.257 12.3371 11.0164C12.3371 10.773 12.143 10.5789 11.8996 10.5789H11.0246V9.2664H11.8996C12.143 9.2664 12.3371 9.06953 12.3371 8.8289C12.3371 8.58554 12.143 8.3914 11.8996 8.3914H10.5871C10.3465 8.3914 10.1496 8.58554 10.1496 8.8289V13.2039ZM13.2121 8.3914C12.9715 8.3914 12.7746 8.58554 12.7746 8.8289C12.7746 9.06953 12.9715 9.2664 13.2121 9.2664H13.6496V13.2039C13.6496 13.4445 13.8465 13.6414 14.0871 13.6414C14.3305 13.6414 14.5246 13.4445 14.5246 13.2039V9.2664H14.9621C15.2055 9.2664 15.3996 9.06953 15.3996 8.8289C15.3996 8.58554 15.2055 8.3914 14.9621 8.3914H13.2121Z" fill="#FF9D24"/>
</g>
<defs>
<clipPath id="clip0_5_421">
<rect width="14" height="14" fill="white" transform="translate(4 4)"/>
</clipPath>
</defs>
</svg>
