<svg width="22" height="22" viewBox="0 0 22 22" fill="none" xmlns="http://www.w3.org/2000/svg">
<rect width="22" height="22" rx="11" fill="#4AE5BC" fill-opacity="0.2"/>
<path d="M16.8086 14.6546C16.5758 14.6525 16.3532 14.559 16.1885 14.3942C16.0239 14.2294 15.9305 14.0065 15.9284 13.7735V7.95619C15.9305 6.88088 15.5061 5.84871 14.7484 5.08647C13.9907 4.32424 12.9616 3.89429 11.8874 3.89111C11.8874 3.65875 11.7952 3.43592 11.6311 3.27162C11.4669 3.10732 11.2443 3.01501 11.0122 3.01501C10.7801 3.01501 10.5574 3.10732 10.3933 3.27162C10.2292 3.43592 10.137 3.65875 10.137 3.89111C9.60483 3.8919 9.07807 3.99773 8.58684 4.20254C8.09562 4.40735 7.64956 4.70713 7.27422 5.08472C6.89887 5.4623 6.6016 5.91027 6.39942 6.403C6.19723 6.89572 6.09411 7.42352 6.09595 7.95619V13.7735C6.09569 14.0071 6.00287 14.231 5.83785 14.3962C5.67284 14.5614 5.4491 14.6543 5.21573 14.6546C4.98361 14.6546 4.761 14.7469 4.59686 14.9112C4.43273 15.0755 4.34052 15.2983 4.34052 15.5307C4.34052 15.763 4.43273 15.9859 4.59686 16.1502C4.761 16.3145 4.98361 16.4068 5.21573 16.4068H16.7886C17.022 16.4065 17.2457 16.3136 17.4107 16.1484C17.5758 15.9832 17.6686 15.7593 17.6689 15.5257C17.6715 15.4114 17.6512 15.2977 17.6091 15.1915C17.5669 15.0852 17.5038 14.9886 17.4235 14.9073C17.3432 14.826 17.2474 14.7617 17.1418 14.7183C17.0361 14.6749 16.9228 14.6532 16.8086 14.6546ZM11.0672 6.0438C10.3574 6.08635 9.68685 6.38449 9.17944 6.88321C8.67204 7.38192 8.36198 8.04754 8.30651 8.75719H8.29651V13.5031C8.29651 13.6332 8.24487 13.758 8.15295 13.85C8.06104 13.942 7.93637 13.9937 7.80638 13.9937C7.67639 13.9937 7.55173 13.942 7.45981 13.85C7.3679 13.758 7.31626 13.6332 7.31626 13.5031V8.42678C7.31362 8.37262 7.32039 8.31842 7.33626 8.26658C7.43455 7.37964 7.85634 6.5602 8.52081 5.96528C9.18527 5.37036 10.0457 5.04179 10.9372 5.04255H11.0672C11.1998 5.04255 11.327 5.09529 11.4208 5.18918C11.5146 5.28306 11.5673 5.4104 11.5673 5.54317C11.5673 5.67595 11.5146 5.80329 11.4208 5.89717C11.327 5.99106 11.1998 6.0438 11.0672 6.0438ZM11.0272 19C11.4871 19.0003 11.9285 18.8182 12.2546 18.4936C12.5808 18.1689 12.7652 17.7282 12.7676 17.2678H9.29676C9.2986 17.7267 9.4815 18.1662 9.80562 18.4906C10.1297 18.8151 10.5688 18.9982 11.0272 19Z" fill="#4AE5BC"/>
</svg>
