<svg width="22" height="22" viewBox="0 0 22 22" fill="none" xmlns="http://www.w3.org/2000/svg">
<rect width="22" height="22" rx="11" fill="#FBC626" fill-opacity="0.2"/>
<path d="M13.6056 12.4437C13.6477 12.1234 13.6343 12.1405 13.8624 11.95C14.0982 11.7519 14.2176 11.1048 14.2176 11.1048C14.2176 11.1048 14.4522 11.0526 14.6091 10.5552C14.7659 10.0582 14.4547 9.71355 14.4547 9.71355C14.4547 9.71355 14.4859 8.31905 13.8851 7.45913C13.6534 7.12652 13.2871 6.74363 13.0019 6.59203C13.0892 6.29436 13.0952 6.08773 13.2942 5.83616C13.5894 5.46422 14.25 5.07478 15.0071 5.07478C15.5922 5.07478 16.3157 5.23498 16.8228 5.96222C17.3592 6.73036 17.3038 8.03245 17.3038 8.03245C17.3038 8.03245 17.5819 8.3395 17.4416 8.784C17.3014 9.22841 17.0644 9.24645 17.0644 9.24645C17.0644 9.24645 16.9298 9.82442 16.719 10.0016C16.508 10.1779 16.293 10.321 16.2675 10.6289C16.2333 11.0403 16.2276 11.2904 16.7744 11.642C17.468 12.0884 18.7266 11.978 18.8706 12.954C18.9957 13.8001 18.8886 14.3765 18.7582 14.4797C18.5735 14.6267 17.2342 14.8186 16.0409 14.8943C16.0278 14.8689 16.0138 14.8439 15.9988 14.8195C15.9882 14.6613 15.9712 14.5035 15.9481 14.3466C15.7869 13.2538 14.5958 13.2824 13.8197 12.783C13.6595 12.6798 13.6321 12.611 13.6056 12.4437ZM8.75087 7.56958C8.17504 8.4533 8.20481 9.88613 8.20481 9.88613C8.20481 9.88613 7.90637 10.2399 8.0565 10.7513C8.20679 11.2621 8.43232 11.3155 8.43232 11.3155C8.43232 11.3155 8.47589 11.5667 8.56164 11.8074C8.02854 11.1857 7.27561 10.7602 6.42421 10.6495C6.35089 10.4494 6.19248 10.3248 6.03371 10.1817C5.83184 10.0003 5.70259 9.40661 5.70259 9.40661C5.70259 9.40661 5.47465 9.38753 5.34048 8.93088C5.2065 8.47463 5.47284 8.15894 5.47284 8.15894C5.47284 8.15894 5.41959 6.82095 5.93415 6.03197C6.42042 5.28488 7.114 5.11984 7.67507 5.11984C8.40109 5.11984 9.03453 5.51973 9.31743 5.9022C9.50776 6.16084 9.5145 6.37319 9.59782 6.67825C9.32409 6.83466 8.97346 7.228 8.75087 7.56958Z" fill="#FBC626"/>
<path d="M9.34541 13.5462C9.3605 13.5403 9.37759 13.5354 9.39225 13.5293C10.113 13.2341 10.1665 12.7711 10.0992 12.3865C10.0415 12.058 9.88505 11.9907 9.64244 11.7899C9.43011 11.6137 9.29742 11.0364 9.29742 11.0364C9.29742 11.0364 8.94489 10.9586 8.88284 10.4054C8.83409 9.97895 9.05867 9.83011 9.05867 9.83011C9.05867 9.83011 8.9838 8.45848 9.64149 7.62598C9.93613 7.25344 10.5976 6.86502 11.3543 6.86502C11.9395 6.86502 12.6635 7.02497 13.1704 7.75203C13.7068 8.52034 13.651 9.82253 13.651 9.82253C13.651 9.82253 13.9296 10.1297 13.7893 10.574C13.6491 11.0181 13.4117 11.0365 13.4117 11.0365C13.4117 11.0365 13.2771 11.6147 13.0662 11.7913C12.8558 11.9676 12.6408 12.1111 12.6152 12.4192C12.5806 12.8304 12.5754 13.0797 13.1222 13.4322C13.8153 13.878 15.0743 13.7676 15.2179 14.7437C15.3434 15.5899 15.2359 16.1662 15.1056 16.2695C14.8726 16.4551 12.4919 16.713 11.3543 16.7178C10.5901 16.72 9.23158 16.6007 8.36217 16.4358C8.99044 15.8189 9.38128 14.9617 9.38128 14.014C9.3813 13.8549 9.36672 13.6994 9.34541 13.5462Z" fill="#FBC626"/>
<path d="M5.9851 11.1028C7.59315 11.1028 8.89618 12.4068 8.89618 14.014C8.89618 15.6222 7.59313 16.9252 5.9851 16.9252C4.37682 16.9252 3.07377 15.6222 3.07377 14.014C3.07377 12.4068 4.37682 11.1028 5.9851 11.1028ZM5.99193 15.9594C5.99193 15.9594 8.04326 15.4123 8.04326 13.7713C8.04326 13.2243 7.53041 12.6772 7.01759 12.6772C6.50474 12.6772 5.99193 13.2243 5.99193 13.2243C5.99193 13.2243 5.47901 12.6772 4.96616 12.6772C4.45332 12.6772 3.94051 13.2243 3.94051 13.7713C3.94051 15.4123 5.99193 15.9594 5.99193 15.9594Z" fill="#FBC626"/>
</svg>
