<svg width="22" height="22" viewBox="0 0 22 22" fill="none" xmlns="http://www.w3.org/2000/svg">
<rect width="22" height="22" rx="11" fill="#FB4226" fill-opacity="0.2"/>
<g clip-path="url(#clip0_199_841)">
<path d="M10.419 13.7137H6.84338C6.71447 13.7137 6.59084 13.6625 6.49969 13.5713C6.40853 13.4801 6.35732 13.3565 6.35732 13.2276C6.35732 13.0987 6.40853 12.9751 6.49969 12.8839C6.59084 12.7928 6.71447 12.7416 6.84338 12.7416H10.8884C11.0289 12.5403 11.1921 12.3517 11.3771 12.1785C12.0657 11.5336 12.977 11.1784 13.9426 11.1784C14.7183 11.1784 15.4585 11.4076 16.0767 11.832V5.45816C16.0763 5.07177 15.9228 4.70128 15.6497 4.42793C15.3766 4.15459 15.0062 4.00069 14.6198 4H5.87696C5.49056 4.00069 5.12021 4.15459 4.84711 4.42793C4.57401 4.70128 4.42045 5.07177 4.4201 5.45816V15.1793C4.42045 15.5657 4.57401 15.9361 4.84711 16.2095C5.12021 16.4828 5.49056 16.6367 5.87696 16.6374H10.9125C10.5005 16.0651 10.2793 15.3774 10.2803 14.6722C10.2803 14.3432 10.3276 14.0212 10.419 13.7141V13.7137ZM13.394 6.43027C13.5381 6.43019 13.6791 6.47286 13.799 6.5529C13.9189 6.63293 14.0124 6.74674 14.0677 6.87991C14.1229 7.01309 14.1374 7.15965 14.1093 7.30106C14.0812 7.44248 14.0119 7.57239 13.9099 7.67437C13.808 7.77635 13.6782 7.84581 13.5368 7.87396C13.3954 7.90212 13.2488 7.88772 13.1156 7.83256C12.9824 7.77741 12.8685 7.68399 12.7884 7.56412C12.7083 7.44425 12.6655 7.30331 12.6655 7.15914C12.6655 6.75664 12.991 6.43027 13.394 6.43027ZM12.6918 10.3318C12.6918 10.4606 12.6406 10.5842 12.5496 10.6752C12.4585 10.7663 12.335 10.8175 12.2062 10.8175H6.84513C6.7188 10.8137 6.59892 10.7608 6.5109 10.6701C6.42288 10.5794 6.37366 10.458 6.37366 10.3316C6.37366 10.2052 6.42288 10.0838 6.5109 9.99312C6.59892 9.90242 6.7188 9.84958 6.84513 9.84578H12.2062C12.4748 9.84578 12.6918 10.0637 12.6918 10.3314V10.3318ZM10.2348 6.43027C10.379 6.43019 10.52 6.47286 10.6399 6.5529C10.7598 6.63293 10.8533 6.74674 10.9085 6.87991C10.9638 7.01309 10.9783 7.15965 10.9502 7.30106C10.9221 7.44248 10.8527 7.57239 10.7508 7.67437C10.6489 7.77635 10.519 7.84581 10.3776 7.87396C10.2362 7.90212 10.0896 7.88772 9.95644 7.83256C9.82323 7.77741 9.70937 7.68399 9.62927 7.56412C9.54916 7.44425 9.5064 7.30331 9.5064 7.15914C9.5064 6.75664 9.83233 6.43027 10.2348 6.43027ZM7.08706 6.43027C7.23122 6.43019 7.37216 6.47285 7.49207 6.55287C7.61198 6.63288 7.70547 6.74666 7.76072 6.87981C7.81596 7.01296 7.83048 7.1595 7.80244 7.3009C7.77441 7.44231 7.70507 7.57222 7.60319 7.67421C7.50132 7.77621 7.37149 7.8457 7.23012 7.87391C7.08876 7.90212 6.9422 7.88777 6.80898 7.83269C6.67577 7.7776 6.56188 7.68425 6.48172 7.56444C6.40156 7.44462 6.35872 7.30373 6.35864 7.15958C6.35864 6.75708 6.68457 6.43027 7.08706 6.43027ZM17.3625 17.1375L16.5645 16.3386C16.913 15.8527 17.1001 15.2697 17.0995 14.6718C17.0995 13.8677 16.767 13.113 16.1629 12.5477C15.5679 11.9908 14.7795 11.6841 13.9426 11.6841C13.1057 11.6841 12.3173 11.9904 11.7223 12.5477C11.1186 13.113 10.7856 13.8677 10.7856 14.6722C10.7856 15.4768 11.1181 16.2314 11.7219 16.7967C12.3169 17.3536 13.1057 17.6603 13.9426 17.6603C14.6263 17.6637 15.2938 17.4515 15.8501 17.0539L16.648 17.8523C16.8449 18.0492 17.166 18.0492 17.3625 17.8523C17.4568 17.7573 17.5097 17.6288 17.5097 17.4949C17.5097 17.361 17.4568 17.2325 17.3625 17.1375ZM13.9426 16.6492C12.7587 16.6492 11.7958 15.7624 11.7958 14.6718C11.7958 13.582 12.7587 12.6952 13.9426 12.6952C15.1264 12.6952 16.0894 13.582 16.0894 14.6722C16.0894 15.7624 15.1264 16.6497 13.9426 16.6497V16.6492Z" fill="#FE3C38"/>
</g>
<defs>
<clipPath id="clip0_199_841">
<rect width="14" height="14" fill="white" transform="translate(4 4)"/>
</clipPath>
</defs>
</svg>
