<svg width="22" height="22" viewBox="0 0 22 22" fill="none" xmlns="http://www.w3.org/2000/svg">
<rect width="22" height="22" rx="11" fill="#51D16B" fill-opacity="0.2"/>
<path d="M17.6875 12.3125L16.5 11.4125C16.5125 11.2875 16.525 11.15 16.525 11C16.525 10.85 16.5125 10.7125 16.5 10.5875L17.6875 9.6875C18.0125 9.4375 18.1 9 17.8875 8.625L16.5625 6.3875C16.4125 6.125 16.125 5.9625 15.825 5.9625C15.725 5.9625 15.6375 5.975 15.5375 6.0125L14.125 6.5625C13.8875 6.4 13.6375 6.2625 13.3875 6.15L13.175 4.7125C13.1125 4.3 12.7625 4 12.3375 4H9.66248C9.23748 4 8.88748 4.3 8.82498 4.7L8.62498 6.15C8.37498 6.2625 8.13748 6.4 7.88748 6.5625L6.47498 6.0125C6.37498 5.975 6.27498 5.9625 6.17498 5.9625C5.87498 5.9625 5.58748 6.1125 5.44998 6.375L4.11248 8.625C3.89998 8.975 3.98748 9.4375 4.31248 9.6875L5.49998 10.5875C5.48748 10.7375 5.47498 10.875 5.47498 11C5.47498 11.125 5.47498 11.2625 5.49998 11.4125L4.31248 12.3125C3.98748 12.5625 3.89998 13 4.11248 13.375L5.43748 15.6125C5.58748 15.875 5.87498 16.0375 6.17498 16.0375C6.27498 16.0375 6.36248 16.025 6.46248 15.9875L7.87498 15.4375C8.11248 15.6 8.36248 15.7375 8.61248 15.85L8.82498 17.2875C8.87498 17.6875 9.23748 18 9.66248 18H12.3375C12.7625 18 13.1125 17.7 13.175 17.3L13.3875 15.85C13.6375 15.7375 13.875 15.6 14.125 15.4375L15.5375 15.9875C15.6375 16.025 15.7375 16.0375 15.8375 16.0375C16.1375 16.0375 16.425 15.8875 16.5625 15.625L17.9 13.3625C18.1 13 18.0125 12.5625 17.6875 12.3125ZM14 11C14 12.65 12.65 14 11 14C9.34998 14 7.99998 12.65 7.99998 11C7.99998 9.35 9.34998 8 11 8C12.65 8 14 9.35 14 11Z" fill="#51D16B"/>
</svg>
