<svg width="22" height="22" viewBox="0 0 22 22" fill="none" xmlns="http://www.w3.org/2000/svg">
<rect width="22" height="22" rx="11" fill="#FF9D24" fill-opacity="0.2"/>
<g clip-path="url(#clip0_5_498)">
<path d="M4.54248 11.13C4.54248 11.7857 4.80298 12.4146 5.26666 12.8783C5.73034 13.342 6.35923 13.6025 7.01498 13.6025C7.67073 13.6025 8.29962 13.342 8.7633 12.8783C9.22699 12.4146 9.48748 11.7857 9.48748 11.13C9.48748 10.4742 9.22699 9.84533 8.7633 9.38165C8.29962 8.91797 7.67073 8.65747 7.01498 8.65747C6.35923 8.65747 5.73034 8.91797 5.26666 9.38165C4.80298 9.84533 4.54248 10.4742 4.54248 11.13Z" fill="#FF9D24"/>
<path d="M12.3475 16.075C12.3475 16.5856 12.5503 17.0752 12.9113 17.4362C13.2723 17.7972 13.7619 18 14.2725 18C14.783 18 15.2726 17.7972 15.6337 17.4362C15.9947 17.0752 16.1975 16.5856 16.1975 16.075C16.1975 15.5645 15.9947 15.0749 15.6337 14.7138C15.2726 14.3528 14.783 14.15 14.2725 14.15C13.7619 14.15 13.2723 14.3528 12.9113 14.7138C12.5503 15.0749 12.3475 15.5645 12.3475 16.075Z" fill="#FF9D24"/>
<path d="M13.61 5.925C13.61 6.43554 13.8128 6.92517 14.1738 7.28618C14.5348 7.64719 15.0244 7.85 15.535 7.85C16.0455 7.85 16.5352 7.64719 16.8962 7.28618C17.2572 6.92517 17.46 6.43554 17.46 5.925C17.46 5.41446 17.2572 4.92483 16.8962 4.56382C16.5352 4.20281 16.0455 4 15.535 4C15.0244 4 14.5348 4.20281 14.1738 4.56382C13.8128 4.92483 13.61 5.41446 13.61 5.925Z" fill="#FF9D24"/>
<path d="M7.862 12.9542L8.412 12.0017L13.725 15.069L13.175 16.0215L7.862 12.9542ZM8.0125 9.73774L14.0032 6.27899L14.5532 7.23149L8.5625 10.6907L8.0125 9.73774Z" fill="#FF9D24"/>
</g>
<defs>
<clipPath id="clip0_5_498">
<rect width="14" height="14" fill="white" transform="translate(4 4)"/>
</clipPath>
</defs>
</svg>
