<svg width="22" height="22" viewBox="0 0 22 22" fill="none" xmlns="http://www.w3.org/2000/svg">
<path d="M8.64284 17.6786C8.64284 17.7113 8.64693 17.7932 8.65512 17.9241C8.6633 18.0551 8.68376 18.1635 8.7165 18.2495C8.74924 18.3354 8.73696 18.4316 8.67967 18.538C8.62238 18.6444 8.58146 18.7242 8.5569 18.7774C8.53235 18.8306 8.44846 18.8572 8.30523 18.8572H4.37666C3.4027 18.8572 2.56992 18.5114 1.87833 17.8198C1.18674 17.1282 0.840942 16.2954 0.840942 15.3215V6.6786C0.840942 5.70464 1.18674 4.87186 1.87833 4.18027C2.56992 3.48868 3.4027 3.14288 4.37666 3.14288H8.30523C8.41163 3.14288 8.5037 3.18176 8.58146 3.25951C8.65921 3.33727 8.69809 3.42934 8.69809 3.53574C8.69809 3.56848 8.70218 3.65032 8.71036 3.78128C8.71855 3.91223 8.73901 4.02067 8.77175 4.10661C8.80448 4.19255 8.79221 4.28872 8.73492 4.39512C8.67762 4.50151 8.6367 4.58131 8.61215 4.63451C8.58759 4.68771 8.5037 4.71431 8.36047 4.71431H4.4319C3.89172 4.71431 3.4293 4.90665 3.04463 5.29132C2.65995 5.67599 2.46762 6.13842 2.46762 6.6786V15.3215C2.46762 15.8616 2.65995 16.3241 3.04463 16.7087C3.4293 17.0934 3.89172 17.2857 4.4319 17.2857H8.26226L8.40344 17.298L8.54463 17.3348L8.64284 17.4024L8.72878 17.5129L8.75333 17.6786H8.64284ZM20.0357 11C20.0357 11.2128 19.9579 11.397 19.8024 11.5525L13.1239 18.2311C12.9684 18.3866 12.7842 18.4643 12.5714 18.4643C12.3586 18.4643 12.1745 18.3866 12.019 18.2311C11.8635 18.0755 11.7857 17.8914 11.7857 17.6786V14.1429H6.2857C6.0729 14.1429 5.88875 14.0651 5.73324 13.9096C5.57774 13.7541 5.49998 13.57 5.49998 13.3572V8.64288C5.49998 8.43009 5.57774 8.24593 5.73324 8.09043C5.88875 7.93492 6.0729 7.85717 6.2857 7.85717H11.7857V4.32145C11.7857 4.10866 11.8635 3.92451 12.019 3.769C12.1745 3.61349 12.3586 3.53574 12.5714 3.53574C12.7842 3.53574 12.9684 3.61349 13.1239 3.769L19.8024 10.4476C19.9579 10.6031 20.0357 10.7872 20.0357 11Z" fill="#DB1F1F"/>
</svg>
