<svg width="22" height="22" viewBox="0 0 22 22" fill="none" xmlns="http://www.w3.org/2000/svg">
<path d="M8.64287 17.6785C8.64287 17.7113 8.64696 17.7931 8.65515 17.9241C8.66333 18.055 8.68379 18.1635 8.71653 18.2494C8.74927 18.3353 8.73699 18.4315 8.6797 18.5379C8.62241 18.6443 8.58149 18.7241 8.55693 18.7773C8.53238 18.8305 8.44849 18.8571 8.30526 18.8571H4.37669C3.40273 18.8571 2.56995 18.5113 1.87836 17.8197C1.18677 17.1281 0.840973 16.2954 0.840973 15.3214V6.67854C0.840973 5.70458 1.18677 4.8718 1.87836 4.18021C2.56995 3.48862 3.40273 3.14282 4.37669 3.14282H8.30526C8.41166 3.14282 8.50373 3.1817 8.58149 3.25945C8.65924 3.3372 8.69812 3.42928 8.69812 3.53568C8.69812 3.56842 8.70221 3.65026 8.71039 3.78122C8.71858 3.91217 8.73904 4.02061 8.77178 4.10655C8.80451 4.19249 8.79224 4.28866 8.73495 4.39505C8.67765 4.50145 8.63673 4.58125 8.61218 4.63445C8.58763 4.68765 8.50373 4.71425 8.3605 4.71425H4.43193C3.89175 4.71425 3.42933 4.90659 3.04466 5.29126C2.65998 5.67593 2.46765 6.13836 2.46765 6.67854V15.3214C2.46765 15.8616 2.65998 16.324 3.04466 16.7087C3.42933 17.0933 3.89175 17.2857 4.43193 17.2857H8.26229L8.40347 17.298L8.54466 17.3348L8.64287 17.4023L8.72881 17.5128L8.75336 17.6785H8.64287ZM20.0357 11C20.0357 11.2128 19.958 11.3969 19.8025 11.5524L13.1239 18.231C12.9684 18.3865 12.7842 18.4643 12.5714 18.4643C12.3586 18.4643 12.1745 18.3865 12.019 18.231C11.8635 18.0755 11.7857 17.8913 11.7857 17.6785V14.1428H6.28573C6.07293 14.1428 5.88878 14.0651 5.73327 13.9096C5.57777 13.7541 5.50001 13.5699 5.50001 13.3571V8.64282C5.50001 8.43002 5.57777 8.24587 5.73327 8.09037C5.88878 7.93486 6.07293 7.85711 6.28573 7.85711H11.7857V4.32139C11.7857 4.1086 11.8635 3.92444 12.019 3.76894C12.1745 3.61343 12.3586 3.53568 12.5714 3.53568C12.7842 3.53568 12.9684 3.61343 13.1239 3.76894L19.8025 10.4475C19.958 10.603 20.0357 10.7872 20.0357 11Z" fill="white"/>
</svg>
