<svg width="22" height="22" viewBox="0 0 22 22" fill="none" xmlns="http://www.w3.org/2000/svg">
<rect width="22" height="22" rx="11" fill="#26DFFB" fill-opacity="0.2"/>
<path d="M11 3.1753C6.68552 3.1753 3.17529 6.68553 3.17529 11C3.17529 15.3145 6.68552 18.8247 11 18.8247C15.3145 18.8247 18.8247 15.3144 18.8247 11C18.8247 6.68552 15.3145 3.1753 11 3.1753ZM6.59859 9.5214C6.59859 10.3677 8.09819 10.9102 10.0219 10.9847C9.7239 11.2875 9.49657 11.6361 9.35522 12.023C7.76486 11.8186 6.59861 11.1948 6.59861 10.4498V9.5214H6.59859ZM6.59859 11.1719C6.59859 11.8959 7.69798 12.3974 9.21767 12.5751C9.20238 12.6916 9.17658 12.8062 9.17658 12.9256C9.17658 13.1825 9.22529 13.428 9.29598 13.6658C7.73621 13.4538 6.59861 12.8368 6.59861 12.1003V11.1719H6.59859ZM10.4651 15.4014C8.89959 15.4014 7.54994 15.0031 6.94246 14.4319C6.72087 14.2247 6.59861 13.9944 6.59861 13.7509V12.8225C6.59861 13.6 7.86038 14.1224 9.55578 14.261C9.5892 14.3183 9.62552 14.3765 9.66276 14.4319C9.91779 14.8121 10.2616 15.1406 10.679 15.3928C10.6074 15.3937 10.5386 15.4014 10.4651 15.4014ZM10.4651 10.4498C8.33031 10.4498 6.59861 9.71148 6.59861 8.7993V8.24912C6.59861 7.3379 8.33031 6.5986 10.4651 6.5986C12.6008 6.5986 14.3316 7.3379 14.3316 8.24912V8.7993C14.3316 9.24441 13.9142 9.64748 13.2427 9.94359C13.0708 9.92258 12.8998 9.89965 12.7212 9.89965C11.9714 9.89965 11.2789 10.1002 10.7068 10.4384C10.6246 10.4422 10.5473 10.4498 10.4651 10.4498ZM14.8798 13.3917H10.9675V12.6085H14.8798V13.3917Z" fill="#26DFFB"/>
</svg>
