<svg width="22" height="22" viewBox="0 0 22 22" fill="none" xmlns="http://www.w3.org/2000/svg">
<path d="M17.974 14.52C18.5753 15.3706 19.2647 15.9206 20.042 16.17C19.7047 17.2113 19.1693 18.2966 18.436 19.426C17.3067 21.1273 16.192 21.978 15.092 21.978C14.6813 21.978 14.0727 21.8386 13.266 21.56C12.518 21.2813 11.8653 21.142 11.308 21.142C10.7507 21.142 10.1347 21.2886 9.46 21.582C8.756 21.8606 8.17667 22 7.722 22C6.402 22 5.104 20.878 3.828 18.634C2.552 16.4193 1.914 14.2413 1.914 12.1C1.914 10.12 2.398 8.49929 3.366 7.23796C4.36333 5.97662 5.59534 5.34596 7.062 5.34596C7.38467 5.34596 7.744 5.38629 8.14 5.46696C8.536 5.54763 8.94667 5.69796 9.372 5.91796C9.82667 6.16729 10.2007 6.33962 10.494 6.43496C10.7873 6.53029 11.0147 6.57796 11.176 6.57796C11.3667 6.57796 11.66 6.53396 12.056 6.44596C12.452 6.35796 12.848 6.19662 13.244 5.96196C13.6693 5.72729 14.036 5.55129 14.344 5.43396C14.652 5.31662 14.9673 5.25796 15.29 5.25796C16.3167 5.25796 17.2407 5.53662 18.062 6.09396C18.502 6.38729 18.9493 6.81996 19.404 7.39196C18.7293 7.97862 18.238 8.49196 17.93 8.93196C17.358 9.75329 17.072 10.648 17.072 11.616C17.072 12.6866 17.3727 13.6546 17.974 14.52ZM13.552 4.24596C13.0387 4.72996 12.5693 5.04529 12.144 5.19196C11.9973 5.23596 11.8103 5.27629 11.583 5.31296C11.3557 5.34962 11.0953 5.38263 10.802 5.41196C10.8167 4.12129 11.154 3.00662 11.814 2.06796C12.474 1.12929 13.5593 0.483958 15.07 0.131958C15.0993 0.278625 15.1213 0.381291 15.136 0.439958V0.681958C15.136 1.20996 15.0113 1.80396 14.762 2.46396C14.498 3.10929 14.0947 3.70329 13.552 4.24596Z" fill="black"/>
</svg>
