<svg width="22" height="22" viewBox="0 0 22 22" fill="none" xmlns="http://www.w3.org/2000/svg">
<rect width="22" height="22" rx="11" fill="#4AE5BC" fill-opacity="0.2"/>
<g clip-path="url(#clip0_5_33)">
<path d="M16.072 12.56C16.5093 13.1787 17.0107 13.5787 17.576 13.76C17.3307 14.5173 16.9413 15.3067 16.408 16.128C15.5867 17.3653 14.776 17.984 13.976 17.984C13.6773 17.984 13.2347 17.8827 12.648 17.68C12.104 17.4773 11.6293 17.376 11.224 17.376C10.8187 17.376 10.3707 17.4827 9.88 17.696C9.368 17.8987 8.94667 18 8.616 18C7.656 18 6.712 17.184 5.784 15.552C4.856 13.9413 4.392 12.3573 4.392 10.8C4.392 9.36 4.744 8.18133 5.448 7.264C6.17333 6.34667 7.06933 5.888 8.136 5.888C8.37067 5.888 8.632 5.91733 8.92 5.976C9.208 6.03467 9.50667 6.144 9.816 6.304C10.1467 6.48533 10.4187 6.61067 10.632 6.68C10.8453 6.74933 11.0107 6.784 11.128 6.784C11.2667 6.784 11.48 6.752 11.768 6.688C12.056 6.624 12.344 6.50667 12.632 6.336C12.9413 6.16533 13.208 6.03733 13.432 5.952C13.656 5.86667 13.8853 5.824 14.12 5.824C14.8667 5.824 15.5387 6.02667 16.136 6.432C16.456 6.64533 16.7813 6.96 17.112 7.376C16.6213 7.80267 16.264 8.176 16.04 8.496C15.624 9.09333 15.416 9.744 15.416 10.448C15.416 11.2267 15.6347 11.9307 16.072 12.56ZM12.856 5.088C12.4827 5.44 12.1413 5.66933 11.832 5.776C11.7253 5.808 11.5893 5.83733 11.424 5.864C11.2587 5.89067 11.0693 5.91467 10.856 5.936C10.8667 4.99733 11.112 4.18667 11.592 3.504C12.072 2.82133 12.8613 2.352 13.96 2.096C13.9813 2.20267 13.9973 2.27733 14.008 2.32V2.496C14.008 2.88 13.9173 3.312 13.736 3.792C13.544 4.26133 13.2507 4.69333 12.856 5.088Z" fill="#4AE5BC"/>
</g>
<defs>
<clipPath id="clip0_5_33">
<rect width="16" height="16" fill="white" transform="translate(3 2)"/>
</clipPath>
</defs>
</svg>
