<svg width="22" height="22" viewBox="0 0 22 22" fill="none" xmlns="http://www.w3.org/2000/svg">
<rect width="22" height="22" rx="11" fill="#5865F2" fill-opacity="0.2"/>
<path d="M8.308 10.5552C9.1 10.5552 9.7416 11.1496 9.7272 11.8752C9.7272 12.6016 9.1016 13.1952 8.308 13.1952C7.5296 13.1952 6.888 12.6016 6.888 11.8752C6.888 11.1496 7.5152 10.5552 8.308 10.5552ZM13.388 10.5552C14.1816 10.5552 14.8088 11.1496 14.8088 11.8752C14.8088 12.6016 14.1816 13.1952 13.388 13.1952C12.6096 13.1952 11.9688 12.6016 11.9688 11.8752C11.9688 11.1496 12.5944 10.5552 13.388 10.5552ZM14.704 16.7768C17.7048 16.6808 18.86 14.6704 18.86 14.6704C18.86 10.2064 16.904 6.588 16.904 6.588C14.9496 5.092 13.088 5.1336 13.088 5.1336L12.8984 5.3552C15.2072 6.076 16.2792 7.116 16.2792 7.116C15.0185 6.40584 13.6292 5.95359 12.192 5.7856C11.2805 5.68266 10.3598 5.69152 9.4504 5.812C9.368 5.812 9.3 5.8264 9.2184 5.84C8.744 5.8824 7.5888 6.0616 6.1368 6.7136C5.6352 6.9488 5.3352 7.116 5.3352 7.116C5.3352 7.116 6.4632 6.02 8.9064 5.3L8.7704 5.1336C8.7704 5.1336 6.9104 5.0928 4.9544 6.5896C4.9544 6.5896 3 10.2072 3 14.6696C3 14.6696 4.1408 16.6792 7.1416 16.7768C7.1416 16.7768 7.6432 16.1544 8.052 15.6272C6.3264 15.0992 5.676 13.9904 5.676 13.9904C5.676 13.9904 5.8104 14.088 6.0544 14.2264C6.068 14.24 6.0808 14.2544 6.1088 14.2672C6.1496 14.2968 6.1904 14.3096 6.232 14.3376C6.5712 14.5312 6.9104 14.6832 7.2216 14.8088C7.7792 15.0304 8.444 15.252 9.2192 15.4056C10.38 15.633 11.5735 15.6373 12.736 15.4184C13.413 15.2976 14.0735 15.0978 14.704 14.8232C15.2541 14.6104 15.7782 14.3358 16.2664 14.0048C16.2664 14.0048 15.5872 15.1408 13.808 15.6552C14.216 16.1816 14.7056 16.7768 14.7056 16.7768H14.704Z" fill="#5865F2"/>
</svg>
