<svg width="22" height="22" viewBox="0 0 22 22" fill="none" xmlns="http://www.w3.org/2000/svg">
<path d="M7.2985 10.3885C8.3875 10.3885 9.2697 11.2058 9.2499 12.2035C9.2499 13.2023 8.3897 14.0185 7.2985 14.0185C6.2282 14.0185 5.346 13.2023 5.346 12.2035C5.346 11.2058 6.2084 10.3885 7.2985 10.3885ZM14.2835 10.3885C15.3747 10.3885 16.2371 11.2058 16.2371 12.2035C16.2371 13.2023 15.3747 14.0185 14.2835 14.0185C13.2132 14.0185 12.3321 13.2023 12.3321 12.2035C12.3321 11.2058 13.1923 10.3885 14.2835 10.3885ZM16.093 18.9432C20.2191 18.8112 21.8075 16.0469 21.8075 16.0469C21.8075 9.90885 19.118 4.93355 19.118 4.93355C16.4307 2.87655 13.871 2.93375 13.871 2.93375L13.6103 3.23845C16.7849 4.22955 18.2589 5.65955 18.2589 5.65955C16.5255 4.68308 14.6151 4.06125 12.639 3.83025C11.3856 3.68871 10.1197 3.7009 8.8693 3.86655C8.756 3.86655 8.6625 3.88635 8.5503 3.90505C7.898 3.96335 6.3096 4.20975 4.3131 5.10625C3.6234 5.42965 3.2109 5.65955 3.2109 5.65955C3.2109 5.65955 4.7619 4.15255 8.1213 3.16255L7.9343 2.93375C7.9343 2.93375 5.3768 2.87765 2.6873 4.93575C2.6873 4.93575 0 9.90995 0 16.0458C0 16.0458 1.5686 18.809 5.6947 18.9432C5.6947 18.9432 6.3844 18.0874 6.9465 17.3625C4.5738 16.6365 3.6795 15.1119 3.6795 15.1119C3.6795 15.1119 3.8643 15.2461 4.1998 15.4364C4.2185 15.4551 4.2361 15.4749 4.2746 15.4925C4.3307 15.5332 4.3868 15.5508 4.444 15.5893C4.9104 15.8555 5.3768 16.0645 5.8047 16.2372C6.5714 16.5419 7.4855 16.8465 8.5514 17.0578C10.1475 17.3704 11.7886 17.3764 13.387 17.0754C14.3179 16.9092 15.2261 16.6345 16.093 16.257C16.8494 15.9643 17.5701 15.5868 18.2413 15.1317C18.2413 15.1317 17.3074 16.6937 14.861 17.401C15.422 18.1248 16.0952 18.9432 16.0952 18.9432H16.093Z" fill="black"/>
</svg>
