<svg width="18" height="18" viewBox="0 0 18 18" fill="none" xmlns="http://www.w3.org/2000/svg">
<path d="M17.9662 12.6022V5.28186L14.1469 9.10236L17.9662 12.6011M11.52 11.7281C11.2117 12.0382 10.8449 12.2841 10.4409 12.4515C10.037 12.6189 9.60379 12.7046 9.1665 12.7035C8.27775 12.7035 7.44075 12.357 6.81187 11.7281L4.76325 9.67836L0.366749 13.7081V14.3831C0.366749 15.2662 1.0845 15.984 1.9665 15.984H16.3665C17.2485 15.984 17.9662 15.2662 17.9662 14.3842V13.6867L13.5799 9.66823L11.5211 11.727" fill="black"/>
<path d="M16.3991 2.25H1.99912C1.11825 2.25 0.401624 2.96775 0.401624 3.84975V4.18387L7.4115 11.196C7.88962 11.673 8.52525 11.9362 9.20025 11.9362C9.87638 11.9362 10.512 11.673 10.989 11.196L18 4.18387V3.84975C18 2.96775 17.28 2.25 16.3991 2.25ZM0.366749 5.28187V12.6225L4.19625 9.1125L0.366749 5.28187Z" fill="black"/>
</svg>
