<svg width="22" height="22" viewBox="0 0 22 22" fill="none" xmlns="http://www.w3.org/2000/svg">
<rect width="22" height="22" rx="11" fill="#3E74FF" fill-opacity="0.2"/>
<path d="M16.9775 13.4015V8.52124L14.4312 11.0682L16.9775 13.4007M12.68 12.8187C12.4744 13.0255 12.2299 13.1894 11.9606 13.301C11.6913 13.4126 11.4025 13.4697 11.111 13.469C10.5185 13.469 9.9605 13.238 9.54125 12.8187L8.1755 11.4522L5.2445 14.1387V14.5887C5.2445 15.1775 5.723 15.656 6.311 15.656H15.911C16.499 15.656 16.9775 15.1775 16.9775 14.5895V14.1245L14.0532 11.4455L12.6807 12.818" fill="#3E74FF"/>
<path d="M15.9327 6.5H6.33275C5.7455 6.5 5.26775 6.9785 5.26775 7.5665V7.78925L9.941 12.464C10.2597 12.782 10.6835 12.9575 11.1335 12.9575C11.5842 12.9575 12.008 12.782 12.326 12.464L17 7.78925V7.5665C17 6.9785 16.52 6.5 15.9327 6.5ZM5.2445 8.52125V13.415L7.7975 11.075L5.2445 8.52125Z" fill="#3E74FF"/>
</svg>
