<svg width="22" height="22" viewBox="0 0 22 22" fill="none" xmlns="http://www.w3.org/2000/svg">
<rect width="22" height="22" rx="11" fill="#FB4226" fill-opacity="0.2"/>
<path d="M14.6633 12.32C14.2193 13.748 13.1127 14.7367 11.64 14.9553C9.39334 15.2873 7.18667 13.584 7.01134 11.3173C6.95699 10.6362 7.07801 9.95245 7.36287 9.33133C7.64774 8.71021 8.08694 8.17241 8.63862 7.7692C9.1903 7.36598 9.83607 7.1108 10.5144 7.02796C11.1926 6.94512 11.8808 7.0374 12.5133 7.296C12.5898 7.32961 12.676 7.33348 12.7552 7.30684C12.8344 7.28021 12.9007 7.22499 12.9413 7.152L13.898 5.38733C13.92 5.34729 13.9336 5.30318 13.9379 5.25771C13.9423 5.21224 13.9373 5.16635 13.9233 5.12286C13.9094 5.07937 13.8867 5.03919 13.8566 5.00477C13.8266 4.97035 13.7899 4.94241 13.7487 4.92267C12.8857 4.53299 11.9495 4.33207 11.0027 4.33333C7.25467 4.33333 4.22934 7.424 4.336 11.1953C4.434 14.6367 7.274 17.5153 10.712 17.6607C14.4093 17.8173 17.476 14.9633 17.662 11.3487C17.6681 10.8982 17.6687 10.4478 17.664 9.99733C17.6638 9.95377 17.6551 9.91066 17.6382 9.87048C17.6214 9.83031 17.5967 9.79385 17.5658 9.7632C17.5348 9.73255 17.4981 9.7083 17.4578 9.69185C17.4174 9.6754 17.3742 9.66707 17.3307 9.66733H11.3313C11.2876 9.66733 11.2442 9.67596 11.2038 9.69271C11.1633 9.70946 11.1266 9.73401 11.0956 9.76497C11.0647 9.79592 11.0401 9.83266 11.0234 9.87311C11.0066 9.91355 10.998 9.95689 10.998 10.0007V11.9873C10.998 12.0311 11.0066 12.0745 11.0234 12.1149C11.0401 12.1553 11.0647 12.1921 11.0956 12.223C11.1266 12.254 11.1633 12.2785 11.2038 12.2953C11.2442 12.312 11.2876 12.3207 11.3313 12.3207H14.6633V12.32Z" fill="#FB4226"/>
</svg>
