<svg width="22" height="22" viewBox="0 0 22 22" fill="none" xmlns="http://www.w3.org/2000/svg">
<path d="M16.0371 12.815C15.4266 14.7785 13.9049 16.138 11.88 16.4386C8.79083 16.8951 5.75667 14.553 5.51558 11.4364C5.44085 10.4998 5.60726 9.55966 5.99895 8.70563C6.39063 7.85159 6.99454 7.11212 7.7531 6.5577C8.51166 6.00328 9.39958 5.65239 10.3322 5.53849C11.2649 5.42459 12.2111 5.55148 13.0808 5.90705C13.186 5.95326 13.3046 5.95858 13.4134 5.92196C13.5223 5.88534 13.6135 5.80941 13.6693 5.70905L14.9847 3.28263C15.015 3.22757 15.0336 3.16692 15.0396 3.1044C15.0456 3.04187 15.0388 2.97878 15.0196 2.91898C15.0004 2.85918 14.9692 2.80393 14.9279 2.7566C14.8866 2.70927 14.8361 2.67086 14.7794 2.64372C13.5929 2.10791 12.3056 1.83164 11.0037 1.83338C5.85017 1.83338 1.69033 6.08305 1.837 11.2686C1.97175 16.0005 5.87675 19.9586 10.604 20.1585C15.6878 20.3739 19.9045 16.4496 20.1602 11.4795C20.1686 10.8601 20.1695 10.2407 20.163 9.62138C20.1628 9.56148 20.1507 9.50221 20.1275 9.44696C20.1044 9.39172 20.0705 9.34159 20.0279 9.29945C19.9854 9.2573 19.9349 9.22396 19.8794 9.20134C19.824 9.17873 19.7646 9.16727 19.7047 9.16763H11.4556C11.3954 9.16763 11.3358 9.17949 11.2802 9.20252C11.2246 9.22555 11.1741 9.25932 11.1315 9.30188C11.0889 9.34444 11.0552 9.39496 11.0321 9.45057C11.0091 9.50618 10.9972 9.56578 10.9972 9.62597V12.3576C10.9972 12.4178 11.0091 12.4774 11.0321 12.533C11.0552 12.5886 11.0889 12.6392 11.1315 12.6817C11.1741 12.7243 11.2246 12.758 11.2802 12.7811C11.3358 12.8041 11.3954 12.816 11.4556 12.816H16.0371V12.815Z" fill="black"/>
</svg>
