<svg width="22" height="22" viewBox="0 0 22 22" fill="none" xmlns="http://www.w3.org/2000/svg">
<rect width="22" height="22" rx="11" fill="#51D16B" fill-opacity="0.2"/>
<path d="M11 10.313C11.394 10.313 11.7841 10.2355 12.1481 10.0847C12.5121 9.93395 12.8429 9.71298 13.1215 9.4344C13.4001 9.15582 13.6211 8.8251 13.7718 8.4611C13.9226 8.09711 14.0002 7.70698 14.0002 7.313C14.0002 6.91901 13.9226 6.52889 13.7718 6.1649C13.6211 5.8009 13.4001 5.47018 13.1215 5.1916C12.8429 4.91302 12.5121 4.69205 12.1481 4.5413C11.7841 4.39054 11.394 4.31297 11 4.313C10.2044 4.31306 9.44139 4.62916 8.87883 5.19176C8.31627 5.75436 8.00023 6.51739 8.00023 7.313C8.00023 8.10861 8.31627 8.87164 8.87883 9.43424C9.44139 9.99684 10.2044 10.3129 11 10.313ZM11.75 11.75H8.57375C7.62593 11.75 6.71693 12.1265 6.04673 12.7967C5.37652 13.4669 5 14.3759 5 15.3237V16.559C5 16.7579 5.07902 16.9487 5.21967 17.0893C5.36032 17.23 5.55109 17.309 5.75 17.309H13.25V14.75C12.784 14.401 12.4057 13.9481 12.1453 13.4273C11.885 12.9066 11.7496 12.3322 11.75 11.75ZM17.75 11.75C17.75 12.2326 17.5948 12.7024 17.3075 13.0901C17.0201 13.4778 16.6157 13.7629 16.154 13.9032L17 14.75L16.25 15.5L17 16.25L15.6845 17.75L14.75 16.625V13.8725C14.3609 13.7351 14.017 13.4934 13.756 13.1738C13.4949 12.8541 13.3268 12.4689 13.27 12.0602C13.2131 11.6514 13.2697 11.2349 13.4336 10.8562C13.5975 10.4775 13.8624 10.1511 14.1993 9.91273C14.5362 9.67438 14.9321 9.53325 15.3438 9.50474C15.7555 9.47624 16.1671 9.56148 16.5336 9.75112C16.9001 9.94077 17.2074 10.2275 17.422 10.5801C17.6365 10.9326 17.75 11.3373 17.75 11.75ZM15.5 12.5C15.5985 12.5 15.696 12.4806 15.787 12.4429C15.8781 12.4053 15.9607 12.35 16.0304 12.2804C16.1001 12.2107 16.1553 12.128 16.193 12.037C16.2307 11.946 16.2501 11.8485 16.2501 11.75C16.2501 11.6515 16.2307 11.554 16.193 11.463C16.1553 11.372 16.1001 11.2893 16.0304 11.2196C15.9607 11.15 15.8781 11.0947 15.787 11.0571C15.696 11.0194 15.5985 11 15.5 11C15.3011 11 15.1104 11.0791 14.9697 11.2197C14.8291 11.3604 14.7501 11.5511 14.7501 11.75C14.7501 11.9489 14.8291 12.1396 14.9697 12.2803C15.1104 12.4209 15.3011 12.5 15.5 12.5Z" fill="#51D16B"/>
</svg>
