<svg width="22" height="22" viewBox="0 0 22 22" fill="none" xmlns="http://www.w3.org/2000/svg">
<path d="M10.9412 9.93056C11.5283 9.93061 12.1097 9.81515 12.6521 9.59076C13.1945 9.36638 13.6874 9.03748 14.1026 8.62284C14.5177 8.20819 14.8471 7.71593 15.0718 7.17415C15.2965 6.63238 15.4121 6.0517 15.4121 5.46528C15.4121 4.87886 15.2965 4.29819 15.0718 3.75641C14.8471 3.21464 14.5177 2.72237 14.1026 2.30773C13.6874 1.89309 13.1945 1.56418 12.6521 1.3398C12.1097 1.11542 11.5283 0.999955 10.9412 1C9.75556 1.00009 8.61854 1.47058 7.78021 2.30797C6.94189 3.14536 6.47093 4.28108 6.47093 5.46528C6.47093 6.64949 6.94189 7.7852 7.78021 8.62259C8.61854 9.45999 9.75556 9.93047 10.9412 9.93056ZM12.0588 12.0694H7.32559C5.91315 12.0694 4.55857 12.6299 3.55983 13.6274C2.56109 14.625 2 15.9779 2 17.3887V19.2273C2 19.5233 2.11775 19.8073 2.32735 20.0166C2.53695 20.226 2.82123 20.3436 3.11765 20.3436H14.2941V16.5347C13.5996 16.0152 13.036 15.3411 12.648 14.566C12.2599 13.7909 12.0582 12.9361 12.0588 12.0694ZM21 12.0694C20.9999 12.7877 20.7688 13.487 20.3405 14.0641C19.9123 14.6411 19.3097 15.0654 18.6216 15.2744L19.8824 16.5347L18.7647 17.651L19.8824 18.7674L17.922 21L16.5294 19.3255V15.2286C15.9495 15.0241 15.4371 14.6644 15.0481 14.1886C14.6591 13.7129 14.4086 13.1395 14.3239 12.5311C14.2391 11.9227 14.3235 11.3028 14.5678 10.7391C14.812 10.1753 15.2067 9.68955 15.7088 9.33479C16.2108 8.98003 16.8008 8.76996 17.4143 8.72753C18.0278 8.68511 18.6412 8.81198 19.1873 9.09425C19.7335 9.37653 20.1915 9.80336 20.5112 10.3281C20.8309 10.8528 21 11.4552 21 12.0694ZM17.6471 13.1858C17.7938 13.1858 17.9392 13.1569 18.0748 13.1008C18.2104 13.0447 18.3337 12.9625 18.4375 12.8589C18.5413 12.7552 18.6236 12.6321 18.6798 12.4967C18.736 12.3612 18.7649 12.216 18.7649 12.0694C18.7649 11.9228 18.736 11.7776 18.6798 11.6422C18.6236 11.5067 18.5413 11.3837 18.4375 11.28C18.3337 11.1764 18.2104 11.0941 18.0748 11.038C17.9392 10.9819 17.7938 10.9531 17.6471 10.9531C17.3507 10.9532 17.0664 11.0708 16.8569 11.2801C16.6473 11.4895 16.5296 11.7734 16.5296 12.0694C16.5296 12.3655 16.6473 12.6494 16.8569 12.8587C17.0664 13.0681 17.3507 13.1857 17.6471 13.1858Z" fill="black"/>
</svg>
