<svg width="22" height="22" viewBox="0 0 22 22" fill="none" xmlns="http://www.w3.org/2000/svg">
<path d="M17.626 17.128C17.626 17.4888 17.5538 17.8245 17.4094 18.1348C17.2651 18.4452 17.0666 18.7195 16.814 18.9577C16.5614 19.1959 16.2654 19.3835 15.9262 19.5207C15.5869 19.6578 15.2224 19.7264 14.8327 19.7264H7.14567C6.75591 19.7264 6.39141 19.6578 6.05217 19.5207C5.71293 19.3835 5.417 19.1959 5.16437 18.9577C4.91175 18.7195 4.71326 18.4452 4.5689 18.1348C4.42454 17.8245 4.35236 17.4888 4.35236 17.128V2.62008C4.35236 2.25919 4.42454 1.91995 4.5689 1.60236C4.71326 1.28478 4.91175 1.00689 5.16437 0.768701C5.417 0.530512 5.71293 0.342848 6.05217 0.205709C6.39141 0.0685696 6.75591 0 7.14567 0H14.8327C15.2224 0 15.5869 0.0685696 15.9262 0.205709C16.2654 0.342848 16.5614 0.530512 16.814 0.768701C17.0666 1.00689 17.2651 1.28478 17.4094 1.60236C17.5538 1.91995 17.626 2.25919 17.626 2.62008V17.128ZM15.872 3.65945H6.08465V16.0669H15.872V3.65945ZM10.9783 16.6732C10.6752 16.6732 10.4117 16.7815 10.188 16.998C9.96424 17.2146 9.85236 17.4816 9.85236 17.7992C9.85236 18.1024 9.96424 18.3658 10.188 18.5896C10.4117 18.8133 10.6752 18.9252 10.9783 18.9252C11.2959 18.9252 11.563 18.8133 11.7795 18.5896C11.9961 18.3658 12.1043 18.1024 12.1043 17.7992C12.1043 17.4816 11.9961 17.2146 11.7795 16.998C11.563 16.7815 11.2959 16.6732 10.9783 16.6732ZM12.7106 1.8189C12.7106 1.70341 12.6745 1.61319 12.6024 1.54823C12.5302 1.48327 12.4508 1.45079 12.3642 1.45079H9.61417C9.542 1.45079 9.46621 1.48327 9.38681 1.54823C9.30742 1.61319 9.26772 1.70341 9.26772 1.8189C9.26772 1.93438 9.30381 2.02461 9.37599 2.08957C9.44816 2.15453 9.52756 2.18701 9.61417 2.18701H12.3642C12.4508 2.18701 12.5302 2.15453 12.6024 2.08957C12.6745 2.02461 12.7106 1.93438 12.7106 1.8189Z" fill="black"/>
</svg>
