<svg width="22" height="22" viewBox="0 0 22 22" fill="none" xmlns="http://www.w3.org/2000/svg">
<rect width="22" height="22" rx="11" fill="#26DFFB" fill-opacity="0.2"/>
<path d="M15.8189 16.4567C15.8189 16.7192 15.7664 16.9633 15.6614 17.189C15.5564 17.4147 15.4121 17.6142 15.2283 17.7874C15.0446 17.9606 14.8294 18.0971 14.5827 18.1969C14.336 18.2966 14.0709 18.3465 13.7874 18.3465H8.19685C7.91338 18.3465 7.64829 18.2966 7.40157 18.1969C7.15485 18.0971 6.93963 17.9606 6.7559 17.7874C6.57218 17.6142 6.42782 17.4147 6.32283 17.189C6.21785 16.9633 6.16535 16.7192 6.16535 16.4567V5.90551C6.16535 5.64304 6.21785 5.39633 6.32283 5.16535C6.42782 4.93438 6.57218 4.73228 6.7559 4.55906C6.93963 4.38583 7.15485 4.24934 7.40157 4.14961C7.64829 4.04987 7.91338 4 8.19685 4H13.7874C14.0709 4 14.336 4.04987 14.5827 4.14961C14.8294 4.24934 15.0446 4.38583 15.2283 4.55906C15.4121 4.73228 15.5564 4.93438 15.6614 5.16535C15.7664 5.39633 15.8189 5.64304 15.8189 5.90551V16.4567ZM14.5433 6.66142H7.42519V15.685H14.5433V6.66142ZM10.9842 16.126C10.7638 16.126 10.5722 16.2047 10.4094 16.3622C10.2467 16.5197 10.1654 16.7139 10.1654 16.9449C10.1654 17.1654 10.2467 17.357 10.4094 17.5197C10.5722 17.6824 10.7638 17.7638 10.9842 17.7638C11.2152 17.7638 11.4094 17.6824 11.5669 17.5197C11.7244 17.357 11.8031 17.1654 11.8031 16.9449C11.8031 16.7139 11.7244 16.5197 11.5669 16.3622C11.4094 16.2047 11.2152 16.126 10.9842 16.126ZM12.2441 5.32283C12.2441 5.23885 12.2178 5.17323 12.1654 5.12598C12.1129 5.07874 12.0551 5.05512 11.9921 5.05512H9.99212C9.93963 5.05512 9.88451 5.07874 9.82677 5.12598C9.76903 5.17323 9.74016 5.23885 9.74016 5.32283C9.74016 5.40682 9.7664 5.47244 9.8189 5.51969C9.87139 5.56693 9.92913 5.59055 9.99212 5.59055H11.9921C12.0551 5.59055 12.1129 5.56693 12.1654 5.51969C12.2178 5.47244 12.2441 5.40682 12.2441 5.32283Z" fill="#26DFFB"/>
</svg>
