<svg width="22" height="22" viewBox="0 0 22 22" fill="none" xmlns="http://www.w3.org/2000/svg">
<g clip-path="url(#clip0_199_535)">
<path d="M10.2667 5.33328L15.2 3.33328C15.4 3.26661 15.5333 3.33328 15.6 3.53328C15.6667 3.73328 15.6 3.86661 15.4 3.99995L12 5.33328H18.2667V2.99995C18.2667 1.93328 17.8 0.999945 17 0.466612C16.2 -0.0667217 15.1333 -0.0667217 14.1333 0.399945L3.46667 5.06661C3.13333 5.13328 2.8 5.33328 2.53333 5.59994C3 5.39994 3.46667 5.33328 4 5.33328H10.2667Z" fill="black"/>
<path d="M17 13C17 13.0438 17.0086 13.0872 17.0253 13.1276C17.0421 13.1681 17.0666 13.2048 17.0976 13.2358C17.1286 13.2668 17.1653 13.2913 17.2058 13.3081C17.2462 13.3248 17.2896 13.3335 17.3333 13.3335C17.3771 13.3335 17.4205 13.3248 17.4609 13.3081C17.5014 13.2913 17.5381 13.2668 17.5691 13.2358C17.6 13.2048 17.6246 13.1681 17.6413 13.1276C17.6581 13.0872 17.6667 13.0438 17.6667 13C17.6667 12.9563 17.6581 12.9129 17.6413 12.8725C17.6246 12.832 17.6 12.7952 17.5691 12.7643C17.5381 12.7333 17.5014 12.7088 17.4609 12.692C17.4205 12.6753 17.3771 12.6666 17.3333 12.6666C17.2896 12.6666 17.2462 12.6753 17.2058 12.692C17.1653 12.7088 17.1286 12.7333 17.0976 12.7643C17.0666 12.7952 17.0421 12.832 17.0253 12.8725C17.0086 12.9129 17 12.9563 17 13Z" fill="black"/>
<path d="M15 13C15 14.2 16.1333 15.3333 17.3333 15.3333H21V10.6666H17.3333C16.1333 10.6666 15 11.8 15 13ZM18.3333 13C18.3333 13.5333 17.8667 14 17.3333 14C16.8 14 16.3333 13.5333 16.3333 13C16.3333 12.4666 16.8 12 17.3333 12C17.8667 12 18.3333 12.4 18.3333 13Z" fill="black"/>
<path d="M18.3333 6H4C2.33333 6 1 7.2 1 8.66667V16.9333C1 18.5333 2.4 20 4 20H18C19.6 20 21 18.6 21 17V16H17.3333C15.7333 16 14.3333 14.6 14.3333 13C14.3333 11.4 15.7333 10 17.3333 10H21V8.66667C21 7.26667 19.8667 6.13333 18.3333 6Z" fill="black"/>
</g>
<defs>
<clipPath id="clip0_199_535">
<rect width="20" height="20" fill="white" transform="translate(1)"/>
</clipPath>
</defs>
</svg>
