<svg width="22" height="22" viewBox="0 0 22 22" fill="none" xmlns="http://www.w3.org/2000/svg">
<rect width="22" height="22" rx="11" fill="#FF9D24" fill-opacity="0.2"/>
<g clip-path="url(#clip0_5_60)">
<path d="M10.4867 6.73333L13.94 5.33333C14.08 5.28667 14.1733 5.33333 14.22 5.47333C14.2667 5.61333 14.22 5.70667 14.08 5.8L11.7 6.73333H16.0867V5.1C16.0867 4.35333 15.76 3.7 15.2 3.32667C14.64 2.95333 13.8933 2.95333 13.1933 3.28L5.72667 6.54667C5.49333 6.59333 5.26 6.73333 5.07333 6.92C5.4 6.78 5.72667 6.73333 6.1 6.73333H10.4867Z" fill="#FF9D24"/>
<path d="M15.2 12.1C15.2 12.1306 15.206 12.161 15.2177 12.1893C15.2295 12.2176 15.2467 12.2434 15.2683 12.265C15.29 12.2867 15.3157 12.3039 15.344 12.3156C15.3723 12.3274 15.4027 12.3334 15.4333 12.3334C15.464 12.3334 15.4943 12.3274 15.5226 12.3156C15.5509 12.3039 15.5767 12.2867 15.5983 12.265C15.62 12.2434 15.6372 12.2176 15.6489 12.1893C15.6606 12.161 15.6667 12.1306 15.6667 12.1C15.6667 12.0694 15.6606 12.039 15.6489 12.0107C15.6372 11.9824 15.62 11.9566 15.5983 11.935C15.5767 11.9133 15.5509 11.8961 15.5226 11.8844C15.4943 11.8726 15.464 11.8666 15.4333 11.8666C15.4027 11.8666 15.3723 11.8726 15.344 11.8844C15.3157 11.8961 15.29 11.9133 15.2683 11.935C15.2467 11.9566 15.2295 11.9824 15.2177 12.0107C15.206 12.039 15.2 12.0694 15.2 12.1Z" fill="#FF9D24"/>
<path d="M13.8 12.1C13.8 12.94 14.5933 13.7333 15.4333 13.7333H18V10.4667H15.4333C14.5933 10.4667 13.8 11.26 13.8 12.1ZM16.1333 12.1C16.1333 12.4733 15.8067 12.8 15.4333 12.8C15.06 12.8 14.7333 12.4733 14.7333 12.1C14.7333 11.7267 15.06 11.4 15.4333 11.4C15.8067 11.4 16.1333 11.68 16.1333 12.1Z" fill="#FF9D24"/>
<path d="M16.1333 7.2H6.1C4.93333 7.2 4 8.04 4 9.06666V14.8533C4 15.9733 4.98 17 6.1 17H15.9C17.02 17 18 16.02 18 14.9V14.2H15.4333C14.3133 14.2 13.3333 13.22 13.3333 12.1C13.3333 10.98 14.3133 10 15.4333 10H18V9.06666C18 8.08666 17.2067 7.29333 16.1333 7.2Z" fill="#FF9D24"/>
</g>
<defs>
<clipPath id="clip0_5_60">
<rect width="14" height="14" fill="white" transform="translate(4 3)"/>
</clipPath>
</defs>
</svg>
